<?xml version="1.0" standalone="no"?><!DOCTYPE svg PUBLIC "-//W3C//DTD SVG 1.1//EN" "http://www.w3.org/Graphics/SVG/1.1/DTD/svg11.dtd"><svg t="1555676384190" class="icon" style="" viewBox="0 0 1401 1024" version="1.1" xmlns="http://www.w3.org/2000/svg" p-id="2146" xmlns:xlink="http://www.w3.org/1999/xlink" width="273.6328125" height="200"><defs><style type="text/css"></style></defs><path d="M1211.916121 0.001301c98.460592-0.250536 181.31638 73.621752 189.190365 168.682215 7.981356 96.456306-60.772841 180.707936-159.841878 196.670649-22.798763 3.686456-45.275409 3.221175-67.465728-1.753751-8.732964-1.968497-12.025722 0.572653-15.85534 7.050795-69.577387 117.322364-139.118984 234.680518-209.376397 351.609184-7.26554 12.097303 1.646379 13.922636 7.69503 18.611235 48.246048 37.294052 70.615322 86.112754 62.669755 145.38238-8.303474 61.953939-44.309056 105.296642-104.473453 127.630124-64.280343 23.836698-136.076763 4.366482-179.741583-47.06495-43.879566-51.681968-49.856636-122.941526-14.244754-180.600564 6.084442-9.842481 6.263396-14.101589-4.008574-21.474502-98.35322-70.830066-196.241159-142.304368-293.985936-213.921833-8.196102-6.012861-14.280544-7.26554-23.944069-2.720103-22.333482 10.450924-46.59967 14.459498-71.152184 10.916205-10.629878-1.539006-14.99636 1.861123-19.756543 9.914061-29.205323 49.713473-58.5896 99.319572-88.510739 148.639347-5.54758 9.162454-5.798115 14.602661 1.574796 23.872489 32.96336 41.409999 37.150889 86.649616 12.347839 133.213495-22.798763 42.77005-73.049098 68.646825-121.903592 62.276056-52.361995-6.83605-88.653903-34.896066-105.081897-84.287421-28.596878-86.148544 48.496584-171.04441 140.121127-154.473253 10.307761 1.861123 15.032151-0.966352 19.899705-9.305617 27.666317-47.387069 55.58317-94.666764 84.21584-141.516969 6.227605-10.164597 6.084442-15.461641-3.507502-23.979861-45.346991-40.085738-58.410646-102.111258-34.323413-155.833304C236.47265 313.958524 292.306355 281.31728 353.114988 285.254272c57.694829 3.758038 108.016746 43.879566 124.44474 99.570109 11.059368 37.473007 6.299187 73.299634-13.994217 106.692485-5.368625 8.804546-3.82962 12.669956 3.972783 18.289118 99.069037 71.724837 197.959119 143.70021 296.741829 215.854538 6.513932 4.760181 11.274114 6.370769 19.25547 2.004287 27.3442-14.99636 57.229548-20.901849 88.367577-17.895419 11.13095 1.073725 15.676387-2.899058 20.794476-11.56044 68.611034-115.962312 137.472605-231.781461 206.763666-347.350074 6.227605-10.379343 6.478142-15.461641-4.115947-23.51458-63.099246-47.959722-87.114898-129.95653-60.916004-203.828817C1060.341927 50.215846 1132.245719 0.216046 1211.916121 0.001301L1211.916121 0.001301zM1211.916121 0.001301" p-id="2147"></path></svg>