<?xml version="1.0" standalone="no"?><!DOCTYPE svg PUBLIC "-//W3C//DTD SVG 1.1//EN" "http://www.w3.org/Graphics/SVG/1.1/DTD/svg11.dtd"><svg t="1551959422982" class="icon" style="" viewBox="0 0 1024 1024" version="1.1" xmlns="http://www.w3.org/2000/svg" p-id="6845" xmlns:xlink="http://www.w3.org/1999/xlink" width="200" height="200"><defs><style type="text/css"></style></defs><path d="M377.6 787.2V870.4a19.2 19.2 0 0 1-19.2 19.2H102.4a19.2 19.2 0 1 1 0-38.4h236.8V768a19.2 19.2 0 0 1 19.2-19.2h307.2a19.2 19.2 0 0 1 19.2 19.2v134.4H921.6a19.2 19.2 0 1 1 0 38.4H665.6a19.2 19.2 0 0 1-19.2-19.2v-134.4h-268.8zM678.4 358.4V153.6a12.8 12.8 0 0 0-12.8-12.8H358.4a12.8 12.8 0 0 0-12.8 12.8v204.8c0 91.90144 74.49856 166.4 166.4 166.4s166.4-74.49856 166.4-166.4z m38.4 0c0 113.10848-91.69152 204.8-204.8 204.8s-204.8-91.69152-204.8-204.8V153.6c0-28.27776 22.92224-51.2 51.2-51.2h307.2c28.27776 0 51.2 22.92224 51.2 51.2v204.8z" fill="#2c2c2c" p-id="6846"></path><path d="M492.8 544h38.4v176.5504h-38.4z" fill="#2c2c2c" p-id="6847"></path><path d="M409.6 723.2a19.2 19.2 0 1 1 0-38.4h204.8a19.2 19.2 0 1 1 0 38.4h-204.8zM245.38368 248.48896v-86.1184H190.16704a12.8 12.8 0 0 0-9.0496 21.85216l64.26624 64.26624z m38.4-124.5184v217.22368l-129.8176-129.8176c-19.99616-19.9936-19.99616-52.41344 0-72.4096a51.2 51.2 0 0 1 36.20096-14.99648h93.61664zM776.77056 248.48896v-86.1184h55.21664a12.8 12.8 0 0 1 9.0496 21.85216l-64.26624 64.26624z m-38.4-124.5184v217.22368l129.82016-129.8176c19.9936-19.9936 19.9936-52.41344 0-72.4096a51.2 51.2 0 0 0-36.20352-14.99648h-93.61664z" fill="#2c2c2c" p-id="6848"></path></svg>