<?xml version="1.0" standalone="no"?><!DOCTYPE svg PUBLIC "-//W3C//DTD SVG 1.1//EN" "http://www.w3.org/Graphics/SVG/1.1/DTD/svg11.dtd"><svg t="1551960434858" class="icon" style="" viewBox="0 0 1024 1024" version="1.1" xmlns="http://www.w3.org/2000/svg" p-id="41102" xmlns:xlink="http://www.w3.org/1999/xlink" width="200" height="200"><defs><style type="text/css"></style></defs><path d="M684.822 843.384h-0.006c-1.621 0-3.267-0.064-4.889-0.191l-494.211-38.555c-16.332-1.274-31.61-8.771-43.021-21.106C131.285 771.195 125 755.381 125 739V282c0-16.381 6.285-32.196 17.695-44.532 11.412-12.336 26.69-19.832 43.021-21.105l494.212-38.556a62.98 62.98 0 0 1 4.889-0.191c16.187 0 31.321 6.221 42.617 17.518C738.762 206.462 745 221.686 745 238v545c0 16.314-6.237 31.538-17.563 42.865-11.293 11.297-26.429 17.519-42.615 17.519z m-0.005-609.768c-0.176 0-0.35 0.007-0.533 0.021l-494.212 38.556c-4.579 0.357-9.072 5.215-9.072 9.807v457c0 4.592 4.494 9.45 9.073 9.808l494.211 38.555c0.183 0.014 0.362 0.021 0.537 0.021h0.001c1.262 0 2.275-0.374 3.013-1.112 0.773-0.773 1.165-1.874 1.165-3.271V238c0-2.745-1.563-4.384-4.183-4.384zM879.961 250.682c-11.919-11.919-27.729-18.482-44.518-18.482l-58.443 0.001v56l58.444-0.001c2.47 0 4.143 1.303 4.919 2.08s2.08 2.449 2.08 4.919v437.244c0 3.795-3.206 7-7 7H777v56l58.443 0.001c34.738 0 63-28.262 63-63V295.199c0-16.789-6.563-32.599-18.482-44.517z" p-id="41103" fill="#2c2c2c"></path><path d="M566.239 512.81c0-8.481-3.325-16.18-8.734-21.883l0.245-1.678L395 369l-0.058-0.035c-5.777-5.914-13.834-9.59-22.755-9.59-17.57 0-31.812 14.243-31.812 31.812v243.5c0 17.569 14.243 31.812 31.812 31.812 7.939 0 15.192-2.915 20.766-7.724l156.968-118.183c9.734-5.439 16.318-15.839 16.318-27.782z" p-id="41104" fill="#2c2c2c"></path></svg>