<?xml version="1.0" standalone="no"?><!DOCTYPE svg PUBLIC "-//W3C//DTD SVG 1.1//EN" "http://www.w3.org/Graphics/SVG/1.1/DTD/svg11.dtd"><svg t="1551959312275" class="icon" style="" viewBox="0 0 1026 1024" version="1.1" xmlns="http://www.w3.org/2000/svg" p-id="8815" xmlns:xlink="http://www.w3.org/1999/xlink" width="200.390625" height="200"><defs><style type="text/css"></style></defs><path d="M995.84 785.92h-7.68V204.8c0-38.4-30.72-69.12-69.12-69.12H102.4C64 135.68 33.28 166.4 33.28 204.8v581.12h-5.12c-15.36 0-28.16 12.8-28.16 28.16v48.64c0 15.36 12.8 28.16 28.16 28.16H998.4c15.36 0 28.16-12.8 28.16-28.16v-48.64c-2.56-15.36-15.36-28.16-30.72-28.16zM69.12 204.8c0-17.92 15.36-33.28 33.28-33.28h819.2c17.92 0 33.28 15.36 33.28 33.28v581.12H601.6l-5.12 10.24c0 2.56-5.12 5.12-7.68 5.12h-135.68c-5.12 0-7.68-2.56-7.68-5.12l-5.12-10.24H69.12V204.8z m921.6 650.24H33.28V819.2h384c7.68 10.24 20.48 17.92 33.28 17.92H588.8c12.8 0 25.6-7.68 33.28-17.92h366.08v35.84z" fill="" p-id="8816"></path><path d="M921.6 734.72v-512c0-10.24-7.68-17.92-17.92-17.92H120.32c-10.24 0-17.92 7.68-17.92 15.36v512c0 10.24 7.68 17.92 17.92 17.92h785.92c7.68 2.56 15.36-5.12 15.36-15.36z m-33.28-17.92H135.68V238.08h750.08V716.8z" fill="" p-id="8817"></path><path d="M312.32 491.52l102.4 102.4 23.04-23.04-89.6-89.6 89.6-89.6-23.04-23.04-102.4 102.4c-5.12 5.12-5.12 12.8-2.56 17.92 0-2.56 2.56 0 2.56 2.56zM609.28 591.36l102.4-102.4c7.68-7.68 7.68-17.92 0-23.04l-102.4-102.4-23.04 23.04 89.6 89.6-89.6 89.6 23.04 25.6zM478.0544 578.56l33.9968-204.544 32.8192 5.4528-33.9712 204.544z" fill="" p-id="8818"></path></svg>