<?xml version="1.0" standalone="no"?><!DOCTYPE svg PUBLIC "-//W3C//DTD SVG 1.1//EN" "http://www.w3.org/Graphics/SVG/1.1/DTD/svg11.dtd"><svg t="1555676514615" class="icon" style="" viewBox="0 0 1024 1024" version="1.1" xmlns="http://www.w3.org/2000/svg" p-id="3665" xmlns:xlink="http://www.w3.org/1999/xlink" width="200" height="200"><defs><style type="text/css"></style></defs><path d="M902.4 627.2c-51.2 0-83.2 25.6-102.4 51.2-19.2-25.6-57.6-51.2-102.4-51.2-32 0-57.6 12.8-83.2 32-38.4 38.4-38.4 96-38.4 96 0 6.4-19.2 147.2 211.2 262.4H800c6.4 0 6.4 0 12.8-6.4 140.8-76.8 217.6-166.4 211.2-268.8 0-38.4-32-115.2-121.6-115.2zM793.6 966.4c-179.2-96-172.8-192-166.4-198.4 0-12.8 6.4-44.8 25.6-64 12.8-12.8 25.6-12.8 38.4-12.8 57.6 0 76.8 57.6 76.8 64 0 12.8 12.8 19.2 25.6 19.2s25.6-6.4 25.6-19.2c0 0 19.2-64 76.8-64 64 0 64 70.4 64 76.8 6.4 64-51.2 134.4-166.4 198.4z m0-652.8C793.6 140.8 652.8 0 480 0S172.8 140.8 172.8 313.6c0 121.6 70.4 224 172.8 275.2C153.6 652.8 0 819.2 0 992c0 19.2 12.8 32 32 32 12.8 0 25.6-12.8 25.6-25.6 0-185.6 217.6-371.2 422.4-371.2 172.8 0 313.6-140.8 313.6-313.6z m-307.2 256c-140.8 0-256-115.2-256-256s115.2-256 256-256 256 115.2 256 256c-6.4 140.8-115.2 256-256 256z" p-id="3666"></path></svg>