<?xml version="1.0" standalone="no"?><!DOCTYPE svg PUBLIC "-//W3C//DTD SVG 1.1//EN" "http://www.w3.org/Graphics/SVG/1.1/DTD/svg11.dtd"><svg t="1555676579110" class="icon" style="" viewBox="0 0 1024 1024" version="1.1" xmlns="http://www.w3.org/2000/svg" p-id="4517" xmlns:xlink="http://www.w3.org/1999/xlink" width="200" height="200"><defs><style type="text/css"></style></defs><path d="M506.311111 950.044444l-386.844444-347.022222C62.577778 546.133333 28.444444 466.488889 28.444444 386.844444c0-164.977778 130.844444-295.822222 295.822223-295.822222 85.333333 0 147.911111 45.511111 187.733333 85.333334 56.888889-56.888889 125.155556-91.022222 193.422222-91.022223 159.288889 0 290.133333 130.844444 290.133334 295.822223 0 85.333333-34.133333 159.288889-102.4 221.866666l-386.844445 347.022222zM324.266667 147.911111c-130.844444 0-238.933333 108.088889-238.933334 238.933333 0 62.577778 28.444444 130.844444 73.955556 170.666667l347.022222 312.888889 352.711111-312.888889c51.2-45.511111 79.644444-108.088889 79.644445-176.355555 0-130.844444-102.4-238.933333-233.244445-238.933334-62.577778 0-125.155556 34.133333-170.666666 91.022222l-22.755556 28.444445-22.755556-28.444445c-45.511111-51.2-108.088889-85.333333-164.977777-85.333333z" p-id="4518"></path></svg>