<?xml version="1.0" encoding="utf-8"?>
<!-- Generator: Adobe Illustrator 23.0.1, SVG Export Plug-In . SVG Version: 6.00 Build 0)  -->
<svg version="1.1" id="图层_1" xmlns="http://www.w3.org/2000/svg" xmlns:xlink="http://www.w3.org/1999/xlink" x="0px" y="0px"
	 viewBox="0 0 108 138" style="enable-background:new 0 0 108 138;" xml:space="preserve">
<style type="text/css">
	.st0{fill-rule:evenodd;clip-rule:evenodd;fill:#6190A5;}
	.st1{fill-rule:evenodd;clip-rule:evenodd;fill:#537F93;}
	.st2{fill-rule:evenodd;clip-rule:evenodd;fill:url(#Oval-3_1_);}
	.st3{fill:none;stroke:#E5ECF4;stroke-width:3;stroke-linecap:round;}
	.st4{fill-rule:evenodd;clip-rule:evenodd;fill:#B7CCDF;}
	.st5{filter:url(#Adobe_OpacityMaskFilter);}
	.st6{fill-rule:evenodd;clip-rule:evenodd;fill:#FFFFFF;}
	.st7{mask:url(#mask-5_1_);fill-rule:evenodd;clip-rule:evenodd;fill:url(#Oval-3-Copy-2_1_);}
	.st8{filter:url(#Adobe_OpacityMaskFilter_1_);}
	.st9{mask:url(#mask-5_2_);}
	.st10{display:none;}
	.st11{display:inline;fill-rule:evenodd;clip-rule:evenodd;}
	.st12{display:inline;fill-rule:evenodd;clip-rule:evenodd;fill:url(#SVGID_1_);}
	.st13{opacity:0.7;fill:none;stroke:url(#SVGID_2_);stroke-width:3.3869;}
	.st14{fill:#527F93;}
</style>
<title>青铜1</title>
<desc>Created with Sketch.</desc>
<g id="Page-1">
	<g transform="translate(-26.000000, -11.000000)">
		<g id="青铜" transform="translate(6.000000, 11.000000)">
			<g id="青铜1" transform="translate(20.000000, 0.000000)">
				<g id="Group-7" transform="translate(18.000000, 76.000000)">
					<polygon id="Combined-Shape" class="st0" points="72,62 36.5,43 36,43.3 0,62 0,0 36,0 72,0 					"/>
					<polygon class="st1" points="72,62 36.5,43 36,43.3 36,0 72,0 					"/>
				</g>
				<g id="牌子">
					
						<linearGradient id="Oval-3_1_" gradientUnits="userSpaceOnUse" x1="-248.1759" y1="462.9245" x2="-248.1759" y2="461.9245" gradientTransform="matrix(108 0 0 -106 26857 49070)">
						<stop  offset="0" style="stop-color:#BFD8EE"/>
						<stop  offset="1" style="stop-color:#82A4C1"/>
					</linearGradient>
					<ellipse id="Oval-3" class="st2" cx="54" cy="53" rx="54" ry="53"/>
					<g id="Oval-3-Copy-3">
						<path class="st3" d="M32,15.5c-6.1,3.4-11.3,8.3-15.1,14.2 M14.2,34.5c-1.4,2.9-2.4,5.9-3.2,9.1"/>
					</g>
					<g>
						<circle class="st4" cx="54" cy="54" r="38"/>
					</g>
					<defs>
						<filter id="Adobe_OpacityMaskFilter" filterUnits="userSpaceOnUse" x="16" y="10" width="76" height="76">
							<feColorMatrix  type="matrix" values="1 0 0 0 0  0 1 0 0 0  0 0 1 0 0  0 0 0 1 0"/>
						</filter>
					</defs>
					<mask maskUnits="userSpaceOnUse" x="16" y="10" width="76" height="76" id="mask-5_1_">
						<g class="st5">
							<circle id="path-4_1_" class="st6" cx="54" cy="54" r="38"/>
						</g>
					</mask>
					
						<linearGradient id="Oval-3-Copy-2_1_" gradientUnits="userSpaceOnUse" x1="-247.1974" y1="461.6442" x2="-247.1974" y2="460.7105" gradientTransform="matrix(76 0 0 -76 18841 35100)">
						<stop  offset="0" style="stop-color:#EFF4F8"/>
						<stop  offset="1" style="stop-color:#C9DBE9"/>
					</linearGradient>
					<circle id="Oval-3-Copy-2" class="st7" cx="54" cy="48" r="38"/>
					<defs>
						<filter id="Adobe_OpacityMaskFilter_1_" filterUnits="userSpaceOnUse" x="31.9" y="30" width="44.2" height="44.1">
							<feColorMatrix  type="matrix" values="1 0 0 0 0  0 1 0 0 0  0 0 1 0 0  0 0 0 1 0"/>
						</filter>
					</defs>
					<mask maskUnits="userSpaceOnUse" x="31.9" y="30" width="44.2" height="44.1" id="mask-5_2_">
						<g class="st8">
							<circle id="path-4_2_" class="st6" cx="54" cy="54" r="38"/>
						</g>
					</mask>
					<g id="Star-Copy-4" class="st9">
						<g class="st10">
							<path id="path-9" class="st11" d="M54,67.6l-11.1,6.1c-1.1,0.6-2.5,0.2-3.1-0.9c-0.2-0.4-0.3-1-0.3-1.5l2.1-13.2l-9.2-9.4
								c-0.9-0.9-0.9-2.3,0-3.2c0.3-0.3,0.8-0.5,1.2-0.6l12.6-1.9L52,31.3c0.5-1.1,1.9-1.6,3-1.1c0.5,0.2,0.9,0.6,1.1,1.1l5.5,11.8
								L74.2,45c1.2,0.2,2.1,1.3,1.9,2.6c-0.1,0.5-0.3,0.9-0.6,1.2l-9.2,9.4l2.1,13.2c0.2,1.2-0.6,2.4-1.9,2.6c-0.5,0.1-1,0-1.5-0.3
								L54,67.6z"/>
						</g>
						<g class="st10">
							
								<linearGradient id="SVGID_1_" gradientUnits="userSpaceOnUse" x1="-244.8175" y1="458.5996" x2="-244.8175" y2="457.5996" gradientTransform="matrix(44.1706 0 0 -44.0519 10867.7354 20232.1426)">
								<stop  offset="0" style="stop-color:#788D9F"/>
								<stop  offset="1" style="stop-color:#9CBAD6"/>
							</linearGradient>
							<path class="st12" d="M54,67.6l-11.1,6.1c-1.1,0.6-2.5,0.2-3.1-0.9c-0.2-0.4-0.3-1-0.3-1.5l2.1-13.2l-9.2-9.4
								c-0.9-0.9-0.9-2.3,0-3.2c0.3-0.3,0.8-0.5,1.2-0.6l12.6-1.9L52,31.3c0.5-1.1,1.9-1.6,3-1.1c0.5,0.2,0.9,0.6,1.1,1.1l5.5,11.8
								L74.2,45c1.2,0.2,2.1,1.3,1.9,2.6c-0.1,0.5-0.3,0.9-0.6,1.2l-9.2,9.4l2.1,13.2c0.2,1.2-0.6,2.4-1.9,2.6c-0.5,0.1-1,0-1.5-0.3
								L54,67.6z"/>
						</g>
						
							<linearGradient id="SVGID_2_" gradientUnits="userSpaceOnUse" x1="-244.3456" y1="457.9831" x2="-244.3456" y2="456.9831" gradientTransform="matrix(40.7835 0 0 -40.6643 10019.2637 18655.2188)">
							<stop  offset="0" style="stop-color:#FFFFFF"/>
							<stop  offset="1" style="stop-color:#F3F9FE"/>
						</linearGradient>
						<path class="st13" d="M42.1,72.3L54,65.7l11.9,6.6c0.1,0.1,0.2,0.1,0.4,0.1c0.3-0.1,0.5-0.3,0.5-0.6l-2.3-14l9.8-10
							c0.1-0.1,0.1-0.2,0.2-0.3c0-0.3-0.2-0.6-0.5-0.6l-13.5-2.1L54.5,32c-0.1-0.1-0.2-0.2-0.3-0.3c-0.3-0.1-0.6,0-0.8,0.3
							l-5.9,12.6l-13.5,2.1c-0.1,0-0.2,0.1-0.3,0.2c-0.2,0.2-0.2,0.6,0,0.8l9.8,10l-2.3,14c0,0.1,0,0.3,0.1,0.4
							C41.5,72.3,41.8,72.4,42.1,72.3z"/>
					</g>
				</g>
			</g>
		</g>
	</g>
</g>
<g>
	<g>
		<path class="st14" d="M25.3,43h5.3c2.6,0,4.1,1.2,4.1,3.7c0,1.8-0.8,2.6-1.9,3c1.1,0.4,2.2,1.3,2.2,3.4c0,3-1.6,4.3-4.7,4.3h-5V43
			z M29.8,48.5c0.6,0,0.8-0.3,0.8-1.3c0-1-0.1-1.3-0.8-1.3h-0.4v2.7H29.8z M29.4,54.7h0.3c0.7,0,0.9-0.3,0.9-1.7
			c0-1.6-0.2-1.8-1-1.8h-0.3V54.7z"/>
		<path class="st14" d="M36.1,49.9c0-2,0-3.2,0-3.9h4c0,0.4,0.1,1.2,0.1,1.9c0.3-1.2,1.3-2.1,2.8-2.1v4.3c-2.1,0-2.6,0.7-2.6,2.5
			v4.9h-4.2V49.9z"/>
		<path class="st14" d="M53.4,51.5c0,5.2-2.2,6.1-4.9,6.1c-2.5,0-4.7-1-4.7-6.1c0-4.8,2.4-5.8,4.8-5.8
			C51.2,45.8,53.4,46.8,53.4,51.5z M48.1,51.6c0,2.7,0.1,3.2,0.6,3.2c0.5,0,0.5-0.5,0.5-3.2c0-2.6-0.1-2.8-0.5-2.8
			S48.1,48.9,48.1,51.6z"/>
		<path class="st14" d="M54.7,49.6c0-2.4,0-3.1,0-3.7h4c0,0.2,0.1,0.6,0.1,0.9c0.4-0.6,1.3-1.1,2.5-1.1c2,0,2.8,1.2,2.8,3.3v8.4
			h-4.2v-7.8c0-0.5-0.1-0.8-0.5-0.8c-0.4,0-0.6,0.3-0.6,0.9v7.7h-4.2V49.6z"/>
		<path class="st14" d="M65.1,54.8c0.6-1,2-3.3,3.4-5.7h-3.1V46h7.9v2.7c-0.6,1.2-2.2,3.9-3.1,5.6h3.3l-0.4,3.2h-8V54.8z"/>
		<path class="st14" d="M78.4,52.6c0,1.9,0.2,2.3,0.6,2.3c0.4,0,0.5-0.4,0.6-1.1h4c-0.1,1.5-0.7,3.9-4.7,3.9c-3.9,0-4.6-2.5-4.6-6
			c0-4.3,1.8-5.8,4.8-5.8c3.4,0,4.6,1.9,4.6,5.4c0,0.3,0,1,0,1.4H78.4z M79.5,50.3c0-1.5,0-1.9-0.5-1.9c-0.5,0-0.6,0.4-0.6,1.9H79.5
			z"/>
	</g>
</g>
</svg>
