<?xml version="1.0" encoding="UTF-8"?>
<svg width="108px" height="138px" viewBox="0 0 108 138" version="1.1" xmlns="http://www.w3.org/2000/svg" xmlns:xlink="http://www.w3.org/1999/xlink">
    <!-- Generator: Sketch 48.2 (47327) - http://www.bohemiancoding.com/sketch -->
    <title>level-0</title>
    <desc>Created with Sketch.</desc>
    <defs>
        <linearGradient x1="50%" y1="0%" x2="50%" y2="100%" id="linearGradient-1">
            <stop stop-color="#DBDBDB" offset="0%"></stop>
            <stop stop-color="#838383" offset="100%"></stop>
        </linearGradient>
        <circle id="path-2" cx="38" cy="38" r="38"></circle>
        <linearGradient x1="50%" y1="6.63113357%" x2="50%" y2="100%" id="linearGradient-4">
            <stop stop-color="#EEEEEE" offset="0%"></stop>
            <stop stop-color="#D5D9DC" offset="100%"></stop>
        </linearGradient>
    </defs>
    <g id="Page-1" stroke="none" stroke-width="1" fill="none" fill-rule="evenodd">
        <g id="level-0">
            <g id="Group-7" transform="translate(18.000000, 76.000000)" fill-rule="nonzero">
                <polygon id="Combined-Shape" fill="#ABABAB" points="72 62 36.5070423 43 36 43.2638889 0 62 0 0 36 0 72 0"></polygon>
                <polygon id="Combined-Shape" fill="#6C6C6C" points="72 62 36.5070423 43 36 43.2638889 36 0 72 0"></polygon>
            </g>
            <g id="牌子">
                <ellipse id="Oval-3" fill="url(#linearGradient-1)" fill-rule="nonzero" cx="54" cy="53" rx="54" ry="53"></ellipse>
                <g id="Oval-3-Copy-3" stroke-linecap="round" transform="translate(11.000000, 15.000000)" stroke="#E5ECF4" stroke-width="3">
                    <path d="M21.024746,0.4539885 C14.8972268,3.8845 9.6955113,8.7715589 5.888422,14.6463428 M3.1769445,19.4897136 C1.7998711,22.3727764 0.7344876,25.4332466 0.0244048,28.6275136" id="path-2"></path>
                </g>
                <g id="Oval-3" transform="translate(16.000000, 16.000000)" fill="#C3CACF" fill-rule="nonzero">
                    <circle id="path-4" cx="38" cy="38" r="38"></circle>
                </g>
                <g id="Oval-3-Copy-2-Clipped" transform="translate(16.000000, 16.000000)">
                    <mask id="mask-3" fill="white">
                        <use xlink:href="#path-2"></use>
                    </mask>
                    <g id="path-4"></g>
                    <circle id="Oval-3-Copy-2" fill="url(#linearGradient-4)" fill-rule="nonzero" mask="url(#mask-3)" cx="38" cy="32" r="38"></circle>
                </g>
            </g>
            <text id="?" font-family="Copperplate" font-size="64" font-weight="normal" letter-spacing="0.0771428496" fill="#767676">
                <tspan x="40" y="71">?</tspan>
            </text>
        </g>
    </g>
</svg>