<?xml version="1.0" encoding="utf-8"?>
<!-- Generator: Adobe Illustrator 23.0.1, SVG Export Plug-In . SVG Version: 6.00 Build 0)  -->
<svg version="1.1" id="图层_1" xmlns="http://www.w3.org/2000/svg" xmlns:xlink="http://www.w3.org/1999/xlink" x="0px" y="0px"
	 viewBox="0 0 106 147" style="enable-background:new 0 0 106 147;" xml:space="preserve">
<style type="text/css">
	.st0{fill-rule:evenodd;clip-rule:evenodd;fill:#F6674B;}
	.st1{fill-rule:evenodd;clip-rule:evenodd;fill:#F4553E;}
	.st2{fill-rule:evenodd;clip-rule:evenodd;fill:#FED859;}
	.st3{fill-rule:evenodd;clip-rule:evenodd;fill:#FDC935;}
	.st4{fill-rule:evenodd;clip-rule:evenodd;fill:#FECD4A;}
	.st5{fill-rule:evenodd;clip-rule:evenodd;fill:#FEBE29;}
	.st6{fill-rule:evenodd;clip-rule:evenodd;fill:#FDB620;}
	.st7{display:none;}
	.st8{display:inline;fill-rule:evenodd;clip-rule:evenodd;}
	.st9{display:inline;fill-rule:evenodd;clip-rule:evenodd;fill:url(#SVGID_1_);}
	.st10{opacity:0.7;fill:none;stroke:url(#SVGID_2_);stroke-width:3.6;}
	.st11{fill:#F4553E;}
</style>
<title>黄金1</title>
<desc>Created with Sketch.</desc>
<g id="Page-1">
	<g transform="translate(-27.000000, -7.000000)">
		<g id="黄金1" transform="translate(27.000000, 6.000000)">
			<g id="Group-7" transform="translate(16.000000, 86.000000)">
				<polygon id="Combined-Shape" class="st0" points="72,62 36.5,43 36,43.3 0,62 0,0 36,0 72,0 				"/>
				<polygon class="st1" points="72,62 36.5,43 36,43.3 36,0 72,0 				"/>
			</g>
			<g id="牌子">
				<path id="Polygon-Copy-9" class="st2" d="M65,4.9l29,16.7c7.4,4.3,12,12.2,12,20.8v33.5c0,8.6-4.6,16.5-12,20.8l-29,16.7
					c-7.4,4.3-16.6,4.3-24,0L12,96.7C4.6,92.4,0,84.5,0,75.9V42.4c0-8.6,4.6-16.5,12-20.8L41,4.9C48.4,0.6,57.6,0.6,65,4.9z"/>
				<path class="st3" d="M52,1.7c4.5-0.2,9,0.9,13,3.2l29,16.7c7.4,4.3,12,12.2,12,20.8v33.5c0,8.6-4.6,16.5-12,20.8l-29,16.7
					c-4,2.3-8.5,3.4-13,3.2V1.7z"/>
				<path id="Polygon-Copy-6" class="st4" d="M58,17.3l29,16.7c3.1,1.8,5,5.1,5,8.7v33.5c0,3.6-1.9,6.9-5,8.7l-29,16.7
					c-3.1,1.8-6.9,1.8-10,0L19,84.9c-3.1-1.8-5-5.1-5-8.7V42.7c0-3.6,1.9-6.9,5-8.7l29-16.7C51.1,15.6,54.9,15.6,58,17.3z"/>
				<path class="st5" d="M52,16.1c2.1-0.2,4.2,0.2,6,1.3l29,16.7c3.1,1.8,5,5.1,5,8.7v33.5c0,3.6-1.9,6.9-5,8.7l-29,16.7
					c-1.8,1.1-3.9,1.5-6,1.3V16.1z"/>
				<path class="st6" d="M90,36.7c-0.3-0.2-0.7-0.5-1-0.7L60,19.3c-3.1-1.8-6.9-1.8-10,0L21,36.1c-3.1,1.8-5,5.1-5,8.7v33.5
					c0,2.2,0.7,4.3,2,6c-2.5-1.9-4-4.8-4-8V42.7c0-3.6,1.9-6.9,5-8.7l29-16.7c3.1-1.8,6.9-1.8,10,0l29,16.7
					C88.2,34.8,89.2,35.7,90,36.7z"/>
				<g id="Star">
					<g class="st7">
						<path id="path-3" class="st8" d="M52,75.5l-11.8,6.3c-1.2,0.6-2.6,0.2-3.2-1c-0.2-0.5-0.3-1-0.2-1.5L39,65.9l-9.6-9.4
							c-0.9-0.9-1-2.4,0-3.4c0.4-0.4,0.8-0.6,1.4-0.7L44,50.5l5.9-12c0.6-1.2,2-1.7,3.2-1.1c0.5,0.2,0.9,0.6,1.1,1.1l5.9,12
							l13.2,1.9c1.3,0.2,2.2,1.4,2,2.7c-0.1,0.5-0.3,1-0.7,1.4L65,65.9l2.3,13.3c0.2,1.3-0.7,2.5-2,2.8c-0.5,0.1-1.1,0-1.5-0.2
							L52,75.5z"/>
					</g>
					<g class="st7">
						
							<linearGradient id="SVGID_1_" gradientUnits="userSpaceOnUse" x1="-246.0882" y1="463.8318" x2="-246.0882" y2="462.8318" gradientTransform="matrix(46.5649 0 0 -44.9205 11511.0693 20872.6387)">
							<stop  offset="0" style="stop-color:#FBA10D"/>
							<stop  offset="1" style="stop-color:#FAC931"/>
						</linearGradient>
						<path class="st9" d="M52,75.5l-11.8,6.3c-1.2,0.6-2.6,0.2-3.2-1c-0.2-0.5-0.3-1-0.2-1.5L39,65.9l-9.6-9.4
							c-0.9-0.9-1-2.4,0-3.4c0.4-0.4,0.8-0.6,1.4-0.7L44,50.5l5.9-12c0.6-1.2,2-1.7,3.2-1.1c0.5,0.2,0.9,0.6,1.1,1.1l5.9,12
							l13.2,1.9c1.3,0.2,2.2,1.4,2,2.7c-0.1,0.5-0.3,1-0.7,1.4L65,65.9l2.3,13.3c0.2,1.3-0.7,2.5-2,2.8c-0.5,0.1-1.1,0-1.5-0.2
							L52,75.5z"/>
					</g>
					
						<linearGradient id="SVGID_2_" gradientUnits="userSpaceOnUse" x1="-245.6347" y1="463.2071" x2="-245.6347" y2="462.2071" gradientTransform="matrix(42.9647 0 0 -41.3198 10605.6104 19178.4805)">
						<stop  offset="0" style="stop-color:#FFFDF2"/>
						<stop  offset="1" style="stop-color:#F8EFB8"/>
					</linearGradient>
					<path class="st10" d="M39.4,80.1L52,73.4l12.6,6.7c0.1,0.1,0.3,0.1,0.4,0.1c0.3-0.1,0.5-0.4,0.5-0.7l-2.4-14.2l10.2-10.1
						c0.1-0.1,0.2-0.2,0.2-0.3c0-0.3-0.2-0.6-0.5-0.7l-14.1-2.1l-6.3-12.9c-0.1-0.1-0.2-0.2-0.3-0.3c-0.3-0.1-0.7,0-0.8,0.3
						l-6.3,12.9L31,54.2c-0.1,0-0.2,0.1-0.3,0.2c-0.2,0.2-0.2,0.6,0,0.8l10.2,10.1l-2.4,14.2c0,0.1,0,0.3,0.1,0.4
						C38.7,80.2,39.1,80.3,39.4,80.1z"/>
				</g>
			</g>
		</g>
	</g>
</g>
<g>
	<g>
		<path class="st11" d="M41.1,68.6h-4.2c-0.1-0.4-0.2-1-0.2-1.6c-0.7,1.5-2.3,2-3.9,2c-3.8,0-6.1-2-6.1-10.5
			c0-9.1,3.2-10.7,7.6-10.7c5.9,0,6.7,4.1,6.7,6.4H35c0-1.3-0.1-2-0.8-2c-0.8,0-1,0.8-1,6.5c0,5.3,0.2,6.1,1,6.1c0.8,0,1-1,1-2.2
			v-1.5h-1v-4.2h7V68.6z"/>
		<path class="st11" d="M56.4,60.2c0,7.4-3.1,8.7-6.9,8.7c-3.6,0-6.7-1.4-6.7-8.6c0-6.8,3.4-8.2,6.8-8.2
			C53.3,52,56.4,53.5,56.4,60.2z M48.9,60.2c0,3.9,0.1,4.5,0.8,4.5c0.7,0,0.7-0.7,0.7-4.6c0-3.7-0.1-3.9-0.8-3.9
			C49,56.2,48.9,56.4,48.9,60.2z"/>
		<path class="st11" d="M58.2,68.6V47.3h5.9v21.3H58.2z"/>
		<path class="st11" d="M79.4,47.3v16c0,2.6,0.1,4.6,0.1,5.3h-5.7c-0.1-0.5-0.1-1.1-0.2-1.5c-0.8,1.4-2,1.8-3.4,1.8
			c-2.5,0-4.4-1.6-4.4-8.6c0-6.3,2.2-8.2,4.9-8.2c1.5,0,2.4,0.5,2.7,1.1v-5.9H79.4z M72,60.3c0,3.8,0.2,4.3,0.8,4.3
			c0.7,0,0.8-0.5,0.8-4.4c0-3.4-0.1-3.8-0.7-3.8C72.3,56.3,72,56.7,72,60.3z"/>
	</g>
</g>
</svg>
