<?xml version="1.0" encoding="utf-8"?>
<!-- Generator: Adobe Illustrator 23.0.1, SVG Export Plug-In . SVG Version: 6.00 Build 0)  -->
<svg version="1.1" id="图层_1" xmlns="http://www.w3.org/2000/svg" xmlns:xlink="http://www.w3.org/1999/xlink" x="0px" y="0px"
	 viewBox="0 0 108 138" style="enable-background:new 0 0 108 138;" xml:space="preserve">
<style type="text/css">
	.st0{fill-rule:evenodd;clip-rule:evenodd;fill:#6190A5;}
	.st1{fill-rule:evenodd;clip-rule:evenodd;fill:#537F93;}
	.st2{fill-rule:evenodd;clip-rule:evenodd;fill:url(#Oval-3_1_);}
	.st3{fill:none;stroke:#FBFBF7;stroke-width:3;stroke-linecap:round;}
	.st4{fill-rule:evenodd;clip-rule:evenodd;fill:#C9C7C7;}
	.st5{filter:url(#Adobe_OpacityMaskFilter);}
	.st6{fill-rule:evenodd;clip-rule:evenodd;fill:#FFFFFF;}
	.st7{mask:url(#mask-5_1_);fill-rule:evenodd;clip-rule:evenodd;fill:url(#Oval-3-Copy-2_1_);}
	.st8{filter:url(#Adobe_OpacityMaskFilter_1_);}
	.st9{mask:url(#mask-5_2_);}
	.st10{display:none;}
	.st11{display:inline;fill-rule:evenodd;clip-rule:evenodd;}
	.st12{fill-rule:evenodd;clip-rule:evenodd;fill:url(#SVGID_1_);}
	.st13{opacity:0.7;fill:none;stroke:url(#SVGID_2_);stroke-width:3.3869;}
	.st14{fill:none;}
	.st15{fill:#527F93;}
</style>
<title>白银1</title>
<desc>Created with Sketch.</desc>
<g id="Page-1">
	<g transform="translate(-26.000000, -11.000000)">
		<g id="白银" transform="translate(7.000000, 11.000000)">
			<g id="白银1" transform="translate(19.000000, 0.000000)">
				<g id="Group-7" transform="translate(18.000000, 76.000000)">
					<polygon id="Combined-Shape" class="st0" points="72,62 36.5,43 36,43.3 0,62 0,0 36,0 72,0 					"/>
					<polygon class="st1" points="72,62 36.5,43 36,43.3 36,0 72,0 					"/>
				</g>
				<g id="牌子">
					
						<linearGradient id="Oval-3_1_" gradientUnits="userSpaceOnUse" x1="-248.1759" y1="462.9245" x2="-248.1759" y2="461.9245" gradientTransform="matrix(108 0 0 -106 26857 49070)">
						<stop  offset="0" style="stop-color:#EBEAEA"/>
						<stop  offset="1" style="stop-color:#D1D1D2"/>
					</linearGradient>
					<ellipse id="Oval-3" class="st2" cx="54" cy="53" rx="54" ry="53"/>
					<g id="Oval-3-Copy-3">
						<path class="st3" d="M32,15.5c-6.1,3.4-11.3,8.3-15.1,14.2 M14.2,34.5c-1.4,2.9-2.4,5.9-3.2,9.1"/>
					</g>
					<g>
						<circle class="st4" cx="54" cy="54" r="38"/>
					</g>
					<defs>
						<filter id="Adobe_OpacityMaskFilter" filterUnits="userSpaceOnUse" x="16" y="10" width="76" height="76">
							<feColorMatrix  type="matrix" values="1 0 0 0 0  0 1 0 0 0  0 0 1 0 0  0 0 0 1 0"/>
						</filter>
					</defs>
					<mask maskUnits="userSpaceOnUse" x="16" y="10" width="76" height="76" id="mask-5_1_">
						<g class="st5">
							<circle id="path-4_1_" class="st6" cx="54" cy="54" r="38"/>
						</g>
					</mask>
					
						<linearGradient id="Oval-3-Copy-2_1_" gradientUnits="userSpaceOnUse" x1="-247.1974" y1="461.6442" x2="-247.1974" y2="460.7105" gradientTransform="matrix(76 0 0 -76 18841 35100)">
						<stop  offset="0" style="stop-color:#FFFBFB"/>
						<stop  offset="1" style="stop-color:#DEDEDE"/>
					</linearGradient>
					<circle id="Oval-3-Copy-2" class="st7" cx="54" cy="48" r="38"/>
					<defs>
						<filter id="Adobe_OpacityMaskFilter_1_" filterUnits="userSpaceOnUse" x="31.9" y="30" width="44.2" height="44.1">
							<feColorMatrix  type="matrix" values="1 0 0 0 0  0 1 0 0 0  0 0 1 0 0  0 0 0 1 0"/>
						</filter>
					</defs>
					<mask maskUnits="userSpaceOnUse" x="31.9" y="30" width="44.2" height="44.1" id="mask-5_2_">
						<g class="st8">
							<circle id="path-4_2_" class="st6" cx="54" cy="54" r="38"/>
						</g>
					</mask>
					<g id="Star-Copy-4" class="st9">
						<g class="st10">
							<path id="path-9" class="st11" d="M54,67.6l-11.1,6.1c-1.1,0.6-2.5,0.2-3.1-0.9c-0.2-0.4-0.3-1-0.3-1.5l2.1-13.2l-9.2-9.4
								c-0.9-0.9-0.9-2.3,0-3.2c0.3-0.3,0.8-0.5,1.2-0.6l12.6-1.9L52,31.3c0.5-1.1,1.9-1.6,3-1.1c0.5,0.2,0.9,0.6,1.1,1.1l5.5,11.8
								L74.2,45c1.2,0.2,2.1,1.3,1.9,2.6c-0.1,0.5-0.3,0.9-0.6,1.2l-9.2,9.4l2.1,13.2c0.2,1.2-0.6,2.4-1.9,2.6c-0.5,0.1-1,0-1.5-0.3
								L54,67.6z"/>
						</g>
						<g class="st10">
							
								<linearGradient id="SVGID_1_" gradientUnits="userSpaceOnUse" x1="-244.8175" y1="458.5996" x2="-244.8175" y2="457.5996" gradientTransform="matrix(44.1706 0 0 -44.0519 10867.7354 20232.1426)">
								<stop  offset="0" style="stop-color:#B4B4B4"/>
								<stop  offset="0" style="stop-color:#B5B5B5"/>
								<stop  offset="1" style="stop-color:#C7C7C7"/>
							</linearGradient>
							<path class="st12" d="M54,67.6l-11.1,6.1c-1.1,0.6-2.5,0.2-3.1-0.9c-0.2-0.4-0.3-1-0.3-1.5l2.1-13.2l-9.2-9.4
								c-0.9-0.9-0.9-2.3,0-3.2c0.3-0.3,0.8-0.5,1.2-0.6l12.6-1.9L52,31.3c0.5-1.1,1.9-1.6,3-1.1c0.5,0.2,0.9,0.6,1.1,1.1l5.5,11.8
								L74.2,45c1.2,0.2,2.1,1.3,1.9,2.6c-0.1,0.5-0.3,0.9-0.6,1.2l-9.2,9.4l2.1,13.2c0.2,1.2-0.6,2.4-1.9,2.6c-0.5,0.1-1,0-1.5-0.3
								L54,67.6z"/>
						</g>
						
							<linearGradient id="SVGID_2_" gradientUnits="userSpaceOnUse" x1="-244.3456" y1="457.9831" x2="-244.3456" y2="456.9831" gradientTransform="matrix(40.7835 0 0 -40.6643 10019.2637 18655.2188)">
							<stop  offset="0" style="stop-color:#FFFFFF"/>
							<stop  offset="1" style="stop-color:#FFFFFF"/>
						</linearGradient>
						<path class="st13" d="M42.1,72.3L54,65.7l11.9,6.6c0.1,0.1,0.2,0.1,0.4,0.1c0.3-0.1,0.5-0.3,0.5-0.6l-2.3-14l9.8-10
							c0.1-0.1,0.1-0.2,0.2-0.3c0-0.3-0.2-0.6-0.5-0.6l-13.5-2.1L54.5,32c-0.1-0.1-0.2-0.2-0.3-0.3c-0.3-0.1-0.6,0-0.8,0.3
							l-5.9,12.6l-13.5,2.1c-0.1,0-0.2,0.1-0.3,0.2c-0.2,0.2-0.2,0.6,0,0.8l9.8,10l-2.3,14c0,0.1,0,0.3,0.1,0.4
							C41.5,72.3,41.8,72.4,42.1,72.3z"/>
					</g>
				</g>
			</g>
		</g>
	</g>
</g>
<g>
	<g>
		<path class="st14" d="M36.8,19.3c0,0.7,0.1,1,0.4,1s0.3-0.2,0.3-0.6c0-0.4-0.2-0.7-1.1-1.2c-1.4-0.8-1.9-1.5-1.9-2.6
			c0-1.5,0.8-2.4,2.6-2.4c1.9,0,2.6,1,2.6,2.6h-2.2c0-0.7-0.1-0.9-0.3-0.9c-0.2,0-0.3,0.1-0.3,0.5c0,0.3,0.1,0.5,0.9,1
			c1.6,0.9,2.1,1.5,2.1,2.8c0,1.5-0.7,2.5-2.7,2.5c-2.1,0-2.7-0.9-2.7-2.6H36.8z"/>
		<path class="st14" d="M40.6,13.3h2.3v1.5h-2.3V13.3z M40.6,15.3h2.3v6.4h-2.3V15.3z"/>
		<path class="st14" d="M43.7,21.7v-8.4h2.3v8.4H43.7z"/>
		<path class="st14" d="M49,15.3c0.1,1.1,0.3,3.3,0.3,4.3h0.1c0.1-1.1,0.2-2.8,0.4-4.3h2.3l-1.3,6.4h-3l-1.3-6.4H49z"/>
		<path class="st14" d="M54.8,19c0,1.1,0.1,1.3,0.3,1.3c0.2,0,0.3-0.2,0.3-0.6h2.2c-0.1,0.8-0.4,2.2-2.6,2.2c-2.2,0-2.6-1.4-2.6-3.4
			c0-2.4,1-3.3,2.7-3.3c1.9,0,2.6,1.1,2.6,3c0,0.2,0,0.6,0,0.8H54.8z M55.4,17.7c0-0.8,0-1-0.3-1c-0.3,0-0.3,0.2-0.3,1H55.4z"/>
		<path class="st14" d="M58.4,17.5c0-1.1,0-1.8,0-2.2h2.2c0,0.2,0,0.7,0,1.1c0.2-0.7,0.8-1.2,1.5-1.2v2.4c-1.2,0-1.5,0.4-1.5,1.4
			v2.7h-2.3V17.5z"/>
	</g>
</g>
<g>
	<g>
		<path class="st15" d="M30.9,54.3c0,1.5,0.2,2,0.8,2s0.7-0.5,0.7-1.2c0-0.9-0.4-1.5-2.2-2.6c-3-1.8-4.1-3.2-4.1-5.6
			c0-3.1,1.7-5.1,5.6-5.1c4,0,5.5,2.2,5.5,5.5h-4.8c0-1.5-0.2-2-0.7-2c-0.4,0-0.6,0.3-0.6,1c0,0.7,0.2,1.1,1.8,2.1
			c3.3,1.9,4.5,3.3,4.5,6.1c0,3.1-1.6,5.3-5.7,5.3c-4.4,0-5.8-2-5.8-5.5H30.9z"/>
		<path class="st15" d="M38.9,41.5h5v3.3h-5V41.5z M38.9,45.7h5v13.7h-5V45.7z"/>
		<path class="st15" d="M45.6,59.4V41.5h5v17.9H45.6z"/>
		<path class="st15" d="M56.8,45.7c0.2,2.4,0.6,7,0.7,9.1h0.2c0.2-2.4,0.5-6.1,0.8-9.1h4.9l-2.8,13.7h-6.4l-2.8-13.7H56.8z"/>
		<path class="st15" d="M69.1,53.6c0,2.2,0.2,2.8,0.7,2.8c0.5,0,0.6-0.4,0.7-1.3h4.8c-0.2,1.8-0.8,4.6-5.6,4.6c-4.6,0-5.5-3-5.5-7.2
			c0-5.1,2.1-7,5.7-7c4,0,5.5,2.3,5.5,6.4c0,0.4,0,1.2,0,1.6H69.1z M70.4,50.9c0-1.7,0-2.2-0.6-2.2c-0.5,0-0.7,0.5-0.7,2.2H70.4z"/>
		<path class="st15" d="M76.8,50.4c0-2.4,0-3.9-0.1-4.7h4.8c0.1,0.5,0.1,1.4,0.1,2.2c0.4-1.4,1.6-2.5,3.3-2.5v5.1
			c-2.6,0-3.1,0.8-3.1,2.9v5.8h-5V50.4z"/>
	</g>
</g>
</svg>
