<?xml version="1.0" encoding="utf-8"?>
<!-- Generator: Adobe Illustrator 23.0.1, SVG Export Plug-In . SVG Version: 6.00 Build 0)  -->
<svg version="1.1" id="图层_1" xmlns="http://www.w3.org/2000/svg" xmlns:xlink="http://www.w3.org/1999/xlink" x="0px" y="0px"
	 viewBox="0 0 106 147" style="enable-background:new 0 0 106 147;" xml:space="preserve">
<style type="text/css">
	.st0{opacity:0.8976;}
	.st1{fill-rule:evenodd;clip-rule:evenodd;fill:#6190A5;}
	.st2{fill-rule:evenodd;clip-rule:evenodd;fill:#FEBE29;}
	.st3{fill-rule:evenodd;clip-rule:evenodd;fill:#E7F2EC;}
	.st4{fill-rule:evenodd;clip-rule:evenodd;fill:#C2E5E1;}
	.st5{fill-rule:evenodd;clip-rule:evenodd;fill:#C6E6E8;}
	.st6{fill-rule:evenodd;clip-rule:evenodd;fill:#B1D9DB;}
	.st7{fill-rule:evenodd;clip-rule:evenodd;fill:#99B3B4;}
	.st8{opacity:0.7;}
	.st9{display:none;}
	.st10{display:inline;fill-rule:evenodd;clip-rule:evenodd;}
	.st11{display:inline;fill-rule:evenodd;clip-rule:evenodd;fill:url(#SVGID_1_);}
	.st12{fill:none;stroke:url(#SVGID_2_);stroke-width:3.6;}
	.st13{fill:#FEC547;}
</style>
<title>白金1</title>
<desc>Created with Sketch.</desc>
<g id="Page-1">
	<g transform="translate(-27.000000, -7.000000)">
		<g id="白金" transform="translate(6.000000, 6.000000)">
			<g id="白金1-" transform="translate(21.000000, 0.000000)">
				<g id="Group-7" transform="translate(16.000000, 86.000000)" class="st0">
					<polygon id="Combined-Shape" class="st1" points="72,62 36.5,43 36,43.3 0,62 0,0 36,0 72,0 					"/>
					<polygon class="st2" points="72,62 36.5,43 36,43.3 36,0 72,0 					"/>
				</g>
				<g id="牌子">
					<path id="Polygon-Copy-9" class="st3" d="M64.9,5.1l29,16.6C101.4,26,106,34,106,42.6v32.9c0,8.6-4.6,16.6-12.1,20.8l-29,16.6
						c-7.4,4.2-16.5,4.2-23.8,0l-29-16.6C4.6,92,0,84,0,75.4V42.6C0,34,4.6,26,12.1,21.7l29-16.6C48.5,0.9,57.5,0.9,64.9,5.1z"/>
					<path class="st4" d="M52,2c4.5-0.2,9,0.9,13,3.2l29,16.6c7.4,4.3,12,12.1,12,20.6v33.2c0,8.5-4.6,16.4-12,20.6l-29,16.6
						c-4,2.3-8.5,3.4-13,3.2V2z"/>
					<path id="Polygon-Copy-6" class="st5" d="M58,16.9l29,16.7c3.1,1.8,5,5.1,5,8.7v33.5c0,3.6-1.9,6.9-5,8.7l-29,16.7
						c-3.1,1.8-6.9,1.8-10,0L19,84.4c-3.1-1.8-5-5.1-5-8.7V42.3c0-3.6,1.9-6.9,5-8.7l29-16.7C51.1,15.1,54.9,15.1,58,16.9z"/>
					<path class="st6" d="M52,16c2.1-0.2,4.2,0.2,6,1.3l29,16.6c3.1,1.8,5,5,5,8.6v33.1c0,3.5-1.9,6.8-5,8.6l-29,16.6
						c-1.8,1.1-3.9,1.5-6,1.3V16z"/>
					<path class="st7" d="M90,36.7c-0.3-0.2-0.7-0.5-1-0.7L60,19.3c-3.1-1.8-6.9-1.8-10,0L21,36c-3.1,1.8-5,5.1-5,8.7V78
						c0,2.2,0.7,4.3,2,6c-2.5-1.9-4-4.8-4-8V42.7c0-3.6,1.9-6.9,5-8.7l29-16.7c3.1-1.8,6.9-1.8,10,0L87,34
						C88.2,34.7,89.2,35.6,90,36.7z"/>
					<g id="Star" class="st8">
						<g class="st9">
							<path id="path-3" class="st10" d="M52,75.5l-11.8,6.3c-1.2,0.6-2.6,0.2-3.2-1c-0.2-0.5-0.3-1-0.2-1.5L39,65.9l-9.6-9.4
								c-0.9-0.9-1-2.4,0-3.4c0.4-0.4,0.8-0.6,1.4-0.7L44,50.5l5.9-12c0.6-1.2,2-1.7,3.2-1.1c0.5,0.2,0.9,0.6,1.1,1.1l5.9,12
								l13.2,1.9c1.3,0.2,2.2,1.4,2,2.7c-0.1,0.5-0.3,1-0.7,1.4L65,65.9l2.3,13.3c0.2,1.3-0.7,2.5-2,2.8c-0.5,0.1-1.1,0-1.5-0.2
								L52,75.5z"/>
						</g>
						<g class="st9">
							
								<linearGradient id="SVGID_1_" gradientUnits="userSpaceOnUse" x1="-246.0882" y1="463.6717" x2="-246.0882" y2="462.9951" gradientTransform="matrix(46.5649 0 0 -44.9205 11511.0693 20872.6387)">
								<stop  offset="0" style="stop-color:#729CAF"/>
								<stop  offset="1" style="stop-color:#6A90A5"/>
							</linearGradient>
							<path class="st11" d="M52,75.5l-11.8,6.3c-1.2,0.6-2.6,0.2-3.2-1c-0.2-0.5-0.3-1-0.2-1.5L39,65.9l-9.6-9.4
								c-0.9-0.9-1-2.4,0-3.4c0.4-0.4,0.8-0.6,1.4-0.7L44,50.5l5.9-12c0.6-1.2,2-1.7,3.2-1.1c0.5,0.2,0.9,0.6,1.1,1.1l5.9,12
								l13.2,1.9c1.3,0.2,2.2,1.4,2,2.7c-0.1,0.5-0.3,1-0.7,1.4L65,65.9l2.3,13.3c0.2,1.3-0.7,2.5-2,2.8c-0.5,0.1-1.1,0-1.5-0.2
								L52,75.5z"/>
						</g>
						
							<linearGradient id="SVGID_2_" gradientUnits="userSpaceOnUse" x1="-245.6347" y1="463.2071" x2="-245.6347" y2="462.2071" gradientTransform="matrix(42.9647 0 0 -41.3198 10605.6104 19178.4805)">
							<stop  offset="0" style="stop-color:#FFFFFF"/>
							<stop  offset="1" style="stop-color:#F3F9FE"/>
						</linearGradient>
						<path class="st12" d="M39.4,80.1L52,73.4l12.6,6.7c0.1,0.1,0.3,0.1,0.4,0.1c0.3-0.1,0.5-0.4,0.5-0.7l-2.4-14.2l10.2-10.1
							c0.1-0.1,0.2-0.2,0.2-0.3c0-0.3-0.2-0.6-0.5-0.7l-14.1-2.1l-6.3-12.9c-0.1-0.1-0.2-0.2-0.3-0.3c-0.3-0.1-0.7,0-0.8,0.3
							l-6.3,12.9L31,54.2c-0.1,0-0.2,0.1-0.3,0.2c-0.2,0.2-0.2,0.6,0,0.8l10.2,10.1l-2.4,14.2c0,0.1,0,0.3,0.1,0.4
							C38.7,80.2,39.1,80.3,39.4,80.1z"/>
					</g>
				</g>
			</g>
		</g>
	</g>
</g>
<g>
	<g>
		<path class="st13" d="M22.6,51.3H27c2.2,0,3.7,1.1,3.7,3.7c0,2.8-1.3,3.9-3.8,3.9h-0.8v4.5h-3.5V51.3z M26.1,56.3h0.3
			c0.6,0,0.8-0.3,0.8-1.3c0-1-0.3-1.3-0.8-1.3h-0.2V56.3z"/>
		<path class="st13" d="M31.6,63.4V50.8h3.5v12.6H31.6z"/>
		<path class="st13" d="M43.9,60.7c0,1,0.1,2.2,0.1,2.7h-3.1c-0.1-0.3-0.1-0.6-0.1-0.8c-0.6,0.8-1.4,1-2.2,1c-1.5,0-2.5-1-2.5-3.1
			c0-2.3,1.5-3.1,3.7-3.1c0.3,0,0.6,0,0.8,0v-0.8c0-0.5-0.1-0.7-0.4-0.7s-0.4,0.2-0.4,1h-3.3c0-2.2,1.2-3.2,3.8-3.2
			c2.5,0,3.7,0.8,3.7,3.1V60.7z M40.5,59.1c-0.1,0-0.2,0-0.3,0c-0.6,0-0.7,0.5-0.7,1c0,0.6,0.2,0.8,0.5,0.8c0.4,0,0.5-0.3,0.5-1
			V59.1z"/>
		<path class="st13" d="M44.6,53.8h1v-2.1H49v2.1h1.1v2.7H49v3.8c0,0.5,0.2,0.6,0.6,0.6c0.1,0,0.2,0,0.3,0v2.4
			c-0.6,0.2-1.4,0.2-1.8,0.2c-2.1,0-2.6-0.9-2.6-2.6v-4.5h-0.9V53.8z"/>
		<path class="st13" d="M51.1,50.8h3.5v2.3h-3.5V50.8z M51.1,53.8h3.5v9.7h-3.5V53.8z"/>
		<path class="st13" d="M55.8,56.8c0-2,0-2.6,0-3.1h3.4c0,0.1,0.1,0.5,0.1,0.8c0.3-0.5,1.1-0.9,2.1-0.9c1.7,0,2.4,1,2.4,2.8v7h-3.5
			v-6.6c0-0.4-0.1-0.7-0.4-0.7c-0.3,0-0.5,0.2-0.5,0.8v6.5h-3.5V56.8z"/>
		<path class="st13" d="M72.8,60.1c0,1.8,0,2.8,0,3.3h-3.3c-0.1-0.3-0.1-0.7-0.1-0.9c-0.5,0.8-1.2,1.1-2.2,1.1
			c-1.4,0-2.3-0.7-2.3-2.8v-7h3.5v6.5c0,0.5,0.1,0.7,0.4,0.7c0.3,0,0.4-0.3,0.4-0.8v-6.4h3.5V60.1z"/>
		<path class="st13" d="M74,56.9c0-1.8,0-2.7,0-3.1h3.3c0,0.1,0.1,0.6,0.1,0.8c0.5-0.6,1.1-1,2-1c1.2,0,1.7,0.6,1.9,1
			c0.4-0.5,1.1-1,2.3-1c1.7,0,2.4,1.3,2.4,2.9v6.9h-3.4v-6.6c0-0.3-0.1-0.6-0.4-0.6c-0.3,0-0.5,0.2-0.5,0.8v6.5h-3.4v-6.6
			c0-0.5-0.2-0.6-0.4-0.6c-0.3,0-0.4,0.2-0.4,0.8v6.5H74V56.9z"/>
	</g>
</g>
</svg>
