<?xml version="1.0" encoding="utf-8"?>
<!-- Generator: Adobe Illustrator 23.0.1, SVG Export Plug-In . SVG Version: 6.00 Build 0)  -->
<svg version="1.1" id="图层_1" xmlns="http://www.w3.org/2000/svg" xmlns:xlink="http://www.w3.org/1999/xlink" x="0px" y="0px"
	 viewBox="0 0 118 148" style="enable-background:new 0 0 118 148;" xml:space="preserve">
<style type="text/css">
	.st0{fill-rule:evenodd;clip-rule:evenodd;fill:#6895D5;}
	.st1{fill-rule:evenodd;clip-rule:evenodd;fill:#456CDD;}
	.st2{fill-rule:evenodd;clip-rule:evenodd;fill:url(#Path_1_);}
	.st3{fill-rule:evenodd;clip-rule:evenodd;fill:url(#SVGID_1_);}
	.st4{opacity:0.7;}
	
		.st5{display:none;fill-rule:evenodd;clip-rule:evenodd;fill:url(#Rectangle-3_1_);stroke:#FFFFFF;stroke-width:4.32;stroke-linecap:round;stroke-linejoin:round;}
	.st6{display:none;opacity:0.7305;fill-rule:evenodd;clip-rule:evenodd;fill:url(#Rectangle-3-Copy_1_);enable-background:new    ;}
	.st7{display:none;fill-rule:evenodd;clip-rule:evenodd;fill:url(#SVGID_2_);}
	.st8{display:none;opacity:0.4176;fill-rule:evenodd;clip-rule:evenodd;fill:url(#SVGID_3_);enable-background:new    ;}
	.st9{fill:none;stroke:#FFFFFF;stroke-width:4.32;stroke-linecap:round;stroke-linejoin:round;}
	.st10{display:none;}
	.st11{display:inline;fill:#446CDD;}
	.st12{fill:#9A5BE2;}
</style>
<title>钻石1</title>
<desc>Created with Sketch.</desc>
<g id="Page-1">
	<g transform="translate(-21.000000, -7.000000)">
		<g id="钻石" transform="translate(6.000000, 6.000000)">
			<g id="钻石1" transform="translate(15.000000, 1.000000)">
				<g id="Group-7" transform="translate(22.000000, 86.000000)">
					<polygon id="Combined-Shape" class="st0" points="72,62 36.5,43 36,43.3 0,62 0,0 36,0 72,0 					"/>
					<polygon class="st1" points="72,62 36.5,43 36,43.3 36,0 72,0 					"/>
				</g>
				<g id="Group-10">
					
						<linearGradient id="Path_1_" gradientUnits="userSpaceOnUse" x1="-243.4153" y1="468.2797" x2="-243.4153" y2="467.2797" gradientTransform="matrix(118 0 0 -118 28781.998 55256.9961)">
						<stop  offset="0" style="stop-color:#E2CFEF"/>
						<stop  offset="1" style="stop-color:#C1A1DB"/>
					</linearGradient>
					<path id="Path" class="st2" d="M64.1,1.4c5.2,3.3,10.2,6,15.2,8c5.2,2.2,10.9,3.9,16.9,5.2c3.3,0.7,5.9,3.1,6.8,6.3
						c1.7,5.8,3.7,11.4,6,17c2.3,5.7,5,11.2,7.8,16.4c1.5,2.7,1.5,6,0,8.8c-2.9,5.2-5.5,10.7-7.8,16.4c-2.3,5.6-4.3,11.2-6,17
						c-0.9,3.2-3.6,5.7-6.8,6.3c-5.7,1.2-11.3,2.9-16.9,5.2c-5.6,2.3-10.9,5.1-16,8.5c-2.9,1.9-6.5,2-9.5,0.2
						c-6.1-3.6-11.8-6.5-17.1-8.7c-4.9-2-10-3.7-15.2-5c-3.4-0.8-6-3.5-6.7-7c-1.2-5.6-2.9-11.2-5.1-16.6c-2.3-5.5-5-10.8-8.3-15.9
						c-1.9-3-1.9-6.8,0-9.8C4.7,48.6,7.5,43.4,9.7,38c2.2-5.2,3.8-10.7,5-16.3c0.8-3.6,3.6-6.4,7.2-7c7.3-1.3,13.5-3.1,18.7-5.2
						c4.7-1.9,9.1-4.5,13.2-7.6C56.9-0.4,61-0.6,64.1,1.4z"/>
					<g id="Polygon">
						<g>
							<path id="path-3" d="M46.2,22c-5.4,2.3-11.6,4.1-18.7,5.5c-1.3,5.5-3,10.8-5.1,16c-2.2,5.4-4.9,10.6-8,15.8
								c3.1,5.1,5.8,10.3,8,15.8c2.2,5.4,4,10.9,5.3,16.5c5,1.3,10,3,14.7,5c5.2,2.2,10.7,5,16.5,8.3c5.1-3.2,10.5-6,16-8.3
								c5.5-2.3,11.1-4.1,16.9-5.5c1.7-5.4,3.6-10.8,5.7-16c2.2-5.5,4.7-10.7,7.4-15.8c-2.7-5.1-5.1-10.3-7.4-15.8
								c-2.2-5.3-4.1-10.7-5.7-16.1C85.8,26,80.1,24.2,74.9,22c-4.9-2.1-9.9-4.6-14.9-7.7C55.6,17.4,51,19.9,46.2,22z"/>
						</g>
						<g>
							
								<linearGradient id="SVGID_1_" gradientUnits="userSpaceOnUse" x1="-242.7824" y1="467.4539" x2="-242.7824" y2="466.4539" gradientTransform="matrix(90.5205 0 0 -90.5205 22036.3574 42328.4805)">
								<stop  offset="0" style="stop-color:#FFFFFF"/>
								<stop  offset="1" style="stop-color:#DBBFF1"/>
							</linearGradient>
							<path class="st3" d="M46.2,22c-5.4,2.3-11.6,4.1-18.7,5.5c-1.3,5.5-3,10.8-5.1,16c-2.2,5.4-4.9,10.6-8,15.8
								c3.1,5.1,5.8,10.3,8,15.8c2.2,5.4,4,10.9,5.3,16.5c5,1.3,10,3,14.7,5c5.2,2.2,10.7,5,16.5,8.3c5.1-3.2,10.5-6,16-8.3
								c5.5-2.3,11.1-4.1,16.9-5.5c1.7-5.4,3.6-10.8,5.7-16c2.2-5.5,4.7-10.7,7.4-15.8c-2.7-5.1-5.1-10.3-7.4-15.8
								c-2.2-5.3-4.1-10.7-5.7-16.1C85.8,26,80.1,24.2,74.9,22c-4.9-2.1-9.9-4.6-14.9-7.7C55.6,17.4,51,19.9,46.2,22z"/>
						</g>
					</g>
					<g id="中心" transform="translate(26.818182, 26.818182)" class="st4">
						
							<linearGradient id="Rectangle-3_1_" gradientUnits="userSpaceOnUse" x1="-263.2775" y1="442.8211" x2="-262.5223" y2="442.0753" gradientTransform="matrix(30.0556 30.0556 30.0556 -30.0556 -5364.4014 21230.877)">
							<stop  offset="0" style="stop-color:#E1B8FF"/>
							<stop  offset="1" style="stop-color:#8D4BDD"/>
						</linearGradient>
						<path id="Rectangle-3" class="st5" d="M35.1,5L59,29c1.7,1.7,1.7,4.4,0,6.1L35.1,59c-1.7,1.7-4.4,1.7-6.1,0L5,35.1
							c-1.7-1.7-1.7-4.4,0-6.1L29,5C30.7,3.4,33.4,3.4,35.1,5z"/>
						
							<linearGradient id="Rectangle-3-Copy_1_" gradientUnits="userSpaceOnUse" x1="-263.5352" y1="443.1063" x2="-262.6167" y2="442.1558" gradientTransform="matrix(30.0556 30.0556 30.0556 -30.0556 -5364.4014 21230.877)">
							<stop  offset="0" style="stop-color:#E1B8FF"/>
							<stop  offset="1" style="stop-color:#CAADEC"/>
						</linearGradient>
						<polygon id="Rectangle-3-Copy" class="st6" points="32,2 40.5,32 32,62.1 23.6,32 						"/>
						
							<linearGradient id="SVGID_2_" gradientUnits="userSpaceOnUse" x1="-267.9901" y1="431.6045" x2="-267.9611" y2="432.8675" gradientTransform="matrix(56.5117 0 0 -27.9428 15175.2139 12123.0342)">
							<stop  offset="0" style="stop-color:#E1B8FF"/>
							<stop  offset="1" style="stop-color:#8D4BDD"/>
						</linearGradient>
						<path class="st7" d="M60.3,32.4c-0.1,1-0.5,2-1.3,2.7l-24,24c-1.7,1.7-4.4,1.7-6.1,0l-24-24c-0.8-0.8-1.2-1.7-1.3-2.7H60.3z"
							/>
						
							<linearGradient id="SVGID_3_" gradientUnits="userSpaceOnUse" x1="-257.6509" y1="432.6941" x2="-257.6509" y2="431.7938" gradientTransform="matrix(16.7721 0 0 -27.9428 4353.3794 12123.0342)">
							<stop  offset="0" style="stop-color:#DBB8FF"/>
							<stop  offset="1" style="stop-color:#8D4BDD;stop-opacity:0"/>
						</linearGradient>
						<path class="st8" d="M40.4,32.4l-7.9,27.9c-0.3,0-0.7,0-1,0l-7.9-27.9H40.4z"/>
						<path id="Rectangle-3-Copy-2" class="st9" d="M35.1,5L59,29c1.7,1.7,1.7,4.4,0,6.1L35.1,59c-1.7,1.7-4.4,1.7-6.1,0L5,35.1
							c-1.7-1.7-1.7-4.4,0-6.1L29,5C30.7,3.4,33.4,3.4,35.1,5z"/>
					</g>
				</g>
				<g>
					<g class="st10">
						<path class="st11" d="M24.1,51.3h4.4c3.6,0,5.3,1.6,5.3,6.7c0,5.4-1.7,7.3-5.3,7.3h-4.4V51.3z M28.2,62.5h0.2
							c0.9,0,1-0.5,1-4.5c0-3.4-0.2-3.7-0.9-3.7h-0.2V62.5z"/>
						<path class="st11" d="M35.1,50.8h4v2.7h-4V50.8z M35.1,54.2h4v11.1h-4V54.2z"/>
						<path class="st11" d="M49.3,62.2c0,1.2,0.1,2.5,0.1,3.1h-3.6c-0.1-0.3-0.1-0.7-0.2-0.9c-0.7,0.9-1.6,1.1-2.5,1.1
							c-1.7,0-2.9-1.2-2.9-3.6c0-2.6,1.7-3.6,4.2-3.6c0.3,0,0.7,0,0.9,0v-1c0-0.6-0.1-0.8-0.5-0.8s-0.5,0.2-0.5,1.1h-3.8
							c0-2.5,1.3-3.7,4.4-3.7c2.9,0,4.3,1,4.3,3.5V62.2z M45.4,60.4c-0.1,0-0.2,0-0.3,0c-0.7,0-0.9,0.5-0.9,1.2c0,0.7,0.2,1,0.6,1
							c0.4,0,0.6-0.4,0.6-1.2V60.4z"/>
						<path class="st11" d="M50.8,57.8c0-2.1,0-3.2,0-3.6h3.8c0,0.2,0.1,0.7,0.1,0.9c0.6-0.7,1.2-1.1,2.3-1.1c1.4,0,1.9,0.6,2.2,1.1
							c0.5-0.6,1.3-1.1,2.6-1.1c2,0,2.7,1.5,2.7,3.3v8h-3.9v-7.6c0-0.4-0.1-0.7-0.4-0.7s-0.5,0.3-0.5,0.9v7.5h-4v-7.7
							c0-0.6-0.2-0.7-0.5-0.7c-0.3,0-0.5,0.3-0.5,0.9v7.4h-4V57.8z"/>
						<path class="st11" d="M75.1,59.6c0,5-2.1,5.9-4.7,5.9c-2.4,0-4.6-1-4.6-5.9c0-4.7,2.3-5.6,4.6-5.6C72.9,54,75.1,55,75.1,59.6z
							 M69.9,59.6c0,2.7,0.1,3.1,0.5,3.1c0.5,0,0.5-0.5,0.5-3.1c0-2.6-0.1-2.7-0.5-2.7C70,56.9,69.9,57,69.9,59.6z"/>
						<path class="st11" d="M76.3,57.7c0-2.3,0-3,0-3.5h3.9c0,0.2,0.1,0.6,0.1,0.9c0.4-0.5,1.2-1.1,2.4-1.1c1.9,0,2.7,1.2,2.7,3.2
							v8.1h-4v-7.6c0-0.5-0.1-0.8-0.5-0.8c-0.4,0-0.5,0.2-0.5,0.9v7.5h-4V57.7z"/>
						<path class="st11" d="M95.9,50.8v11c0,1.8,0,3.1,0.1,3.6h-3.9C92,65,92,64.6,92,64.3c-0.6,1-1.4,1.2-2.3,1.2
							c-1.7,0-3-1.1-3-5.9c0-4.3,1.5-5.6,3.3-5.6c1,0,1.6,0.4,1.9,0.8v-4H95.9z M90.8,59.7c0,2.6,0.1,2.9,0.5,2.9
							c0.5,0,0.5-0.4,0.5-3c0-2.3-0.1-2.6-0.5-2.6C91,57,90.8,57.2,90.8,59.7z"/>
					</g>
				</g>
			</g>
		</g>
	</g>
</g>
<g>
	<g>
		<path class="st12" d="M22.8,52.2h4.4c3.5,0,5.2,1.6,5.2,6.6c0,5.3-1.7,7.2-5.2,7.2h-4.4V52.2z M26.9,63.2h0.2
			c0.9,0,0.9-0.5,0.9-4.5c0-3.3-0.2-3.7-0.9-3.7h-0.2V63.2z"/>
		<path class="st12" d="M33.7,51.6h4v2.6h-4V51.6z M33.7,55h4v11h-4V55z"/>
		<path class="st12" d="M47.7,62.9c0,1.2,0.1,2.5,0.1,3.1h-3.6c-0.1-0.3-0.1-0.7-0.2-0.9c-0.7,0.9-1.6,1.1-2.5,1.1
			c-1.7,0-2.9-1.2-2.9-3.6c0-2.6,1.7-3.6,4.2-3.6c0.3,0,0.7,0,0.9,0v-0.9c0-0.6-0.1-0.8-0.5-0.8s-0.5,0.2-0.5,1.1h-3.7
			c0-2.5,1.3-3.6,4.4-3.6c2.8,0,4.2,0.9,4.2,3.5V62.9z M43.8,61.1c-0.1,0-0.2,0-0.3,0c-0.7,0-0.8,0.5-0.8,1.1c0,0.7,0.2,0.9,0.6,0.9
			c0.4,0,0.6-0.4,0.6-1.2V61.1z"/>
		<path class="st12" d="M49.1,58.6c0-2,0-3.1,0-3.6h3.8c0,0.2,0.1,0.7,0.1,0.9c0.6-0.7,1.2-1.1,2.3-1.1c1.4,0,1.9,0.6,2.2,1.1
			c0.5-0.6,1.3-1.1,2.6-1.1c1.9,0,2.7,1.5,2.7,3.3V66h-3.9v-7.5c0-0.4-0.1-0.7-0.4-0.7s-0.5,0.3-0.5,0.9V66h-3.9v-7.6
			c0-0.6-0.2-0.7-0.5-0.7c-0.3,0-0.5,0.3-0.5,0.9V66h-3.9V58.6z"/>
		<path class="st12" d="M73.1,60.3c0,5-2.1,5.9-4.6,5.9c-2.4,0-4.5-0.9-4.5-5.8c0-4.6,2.3-5.5,4.6-5.5
			C70.9,54.8,73.1,55.8,73.1,60.3z M68,60.3c0,2.6,0.1,3,0.5,3c0.5,0,0.5-0.5,0.5-3.1c0-2.5-0.1-2.6-0.5-2.6S68,57.8,68,60.3z"/>
		<path class="st12" d="M74.3,58.5c0-2.3,0-3,0-3.5h3.8c0,0.2,0.1,0.6,0.1,0.9c0.4-0.5,1.2-1,2.4-1c1.9,0,2.7,1.2,2.7,3.1v8h-4v-7.5
			c0-0.5-0.1-0.8-0.5-0.8c-0.4,0-0.5,0.2-0.5,0.9V66h-4V58.5z"/>
		<path class="st12" d="M93.7,51.6v10.8c0,1.8,0,3.1,0.1,3.6h-3.8c-0.1-0.3-0.1-0.8-0.1-1c-0.6,0.9-1.4,1.2-2.3,1.2
			c-1.7,0-2.9-1.1-2.9-5.8c0-4.2,1.5-5.5,3.3-5.5c1,0,1.6,0.4,1.8,0.8v-4H93.7z M88.6,60.4c0,2.5,0.1,2.9,0.5,2.9
			c0.5,0,0.5-0.4,0.5-2.9c0-2.3-0.1-2.6-0.5-2.6C88.8,57.7,88.6,58,88.6,60.4z"/>
	</g>
</g>
</svg>
