<?xml version="1.0" standalone="no"?><!DOCTYPE svg PUBLIC "-//W3C//DTD SVG 1.1//EN" "http://www.w3.org/Graphics/SVG/1.1/DTD/svg11.dtd"><svg t="1555137874100" class="icon" style="" viewBox="0 0 1024 1024" version="1.1" xmlns="http://www.w3.org/2000/svg" p-id="1968" xmlns:xlink="http://www.w3.org/1999/xlink" width="200" height="200"><defs><style type="text/css"></style></defs><path d="M1024 227.555556a40.391111 40.391111 0 0 1-35.271111 43.235555H269.084444A40.391111 40.391111 0 0 1 234.382222 227.555556a40.391111 40.391111 0 0 1 34.702222-43.235556h719.644445A40.391111 40.391111 0 0 1 1024 227.555556zM56.888889 170.666667a56.888889 56.888889 0 1 0 0 113.777777 56.888889 56.888889 0 1 0 0-113.777777z m967.111111 341.333333a40.391111 40.391111 0 0 1-35.271111 43.235556H269.084444A40.391111 40.391111 0 0 1 234.382222 512a40.391111 40.391111 0 0 1 34.702222-43.235556h719.644445A40.391111 40.391111 0 0 1 1024 512zM56.888889 455.111111a56.888889 56.888889 0 1 0 0 113.777778 56.888889 56.888889 0 1 0 0-113.777778z m967.111111 341.333333a40.391111 40.391111 0 0 1-35.271111 43.235556H269.084444a44.373333 44.373333 0 0 1 0-86.471111h719.644445A40.391111 40.391111 0 0 1 1024 796.444444zM56.888889 739.555556a56.888889 56.888889 0 1 0 0 113.777777 56.888889 56.888889 0 1 0 0-113.777777z" p-id="1969"></path></svg>