<?xml version="1.0" standalone="no"?><!DOCTYPE svg PUBLIC "-//W3C//DTD SVG 1.1//EN" "http://www.w3.org/Graphics/SVG/1.1/DTD/svg11.dtd"><svg t="1553240890842" class="icon" style="" viewBox="0 0 1024 1024" version="1.1" xmlns="http://www.w3.org/2000/svg" p-id="3309" xmlns:xlink="http://www.w3.org/1999/xlink" width="200" height="200"><defs><style type="text/css"></style></defs><path d="M928 288h-98.784c1.696-21.888 2.848-44.064 2.848-66.816 0-19.264-0.832-39.872-2.592-62.976-1.248-16.672-15.168-29.6-31.904-29.6H226.56c-16.736 0-30.656 12.928-31.904 29.6-1.76 23.68-2.592 43.68-2.592 62.976 0 22.752 1.152 44.928 2.848 66.816H96c-17.664 0-32 14.336-32 32 0 131.904 78.944 224 192 224 1.6 0 2.976-0.672 4.512-0.896 52.064 106.464 129.856 177.952 219.744 191.648-0.032 0.448-0.256 0.8-0.256 1.248v128H352c-17.664 0-32 14.304-32 32s14.336 32 32 32h320c17.696 0 32-14.304 32-32s-14.304-32-32-32H544V736c0-0.448-0.224-0.8-0.256-1.248 89.952-13.664 167.744-85.12 219.872-191.648 1.504 0.224 2.816 0.896 4.384 0.896 113.024 0 192-92.096 192-224 0-17.664-14.304-32-32-32z m-797.792 64h72.224c6.976 44.608 17.344 86.72 30.848 125.568C177.824 467.456 139.264 420.64 130.208 352z m381.856 321.248c-138.752 0-256-207.008-256-452.064 0-9.184 0.192-18.56 0.64-28.576h510.72c0.416 9.984 0.64 19.456 0.64 28.576 0 245.056-117.216 452.064-256 452.064z m278.784-195.712c13.536-38.816 23.84-80.96 30.848-125.536h72.128c-9.088 68.576-47.584 115.392-102.976 125.536z" fill="" p-id="3310"></path></svg>