<svg id="图层_1" data-name="图层 1" xmlns="http://www.w3.org/2000/svg" viewBox="0 0 849.32 626.9"><title>画板 3</title><path d="M23.8,174.1,373.28,8.64C387.93,1.71,408.35-1,429.41.3c20.51,1.25,42.18,6.24,59.93,14.64l322.9,152.88c34.52,16.3,56.18,54.3,13.29,74.55l-16.72,7.92v171a31.65,31.65,0,0,1,31.71,31.59v52.75a31.64,31.64,0,0,1-31.59,31.59H756.18a31.64,31.64,0,0,1-31.59-31.59V452.89A31.63,31.63,0,0,1,756.3,421.3V275.14L476.05,407.83c-14.65,6.92-35.07,9.6-56.11,8.34-20.53-1.25-42.18-6.24-59.94-14.64L37.11,248.66C2.6,232.36-19.11,194.35,23.8,174.1ZM149.63,419.9,225,376.71l156.73,74.2c11.79,5.59,26.44,8.93,40.48,9.77,13.52.81,26.06-.63,34.28-4.52l167.8-79.45,69.85,40c28.5,16.37,36.91,49.4,5.55,67.35L466.45,617.71c-25.08,14.34-64.54,10.84-89.11-3.18L155.17,487.26c-28.52-16.32-36.86-49.43-5.54-67.36Z"/></svg>