<?xml version="1.0" standalone="no"?><!DOCTYPE svg PUBLIC "-//W3C//DTD SVG 1.1//EN" "http://www.w3.org/Graphics/SVG/1.1/DTD/svg11.dtd"><svg t="1557127554115" class="icon" style="" viewBox="0 0 1048 1024" version="1.1" xmlns="http://www.w3.org/2000/svg" p-id="2003" xmlns:xlink="http://www.w3.org/1999/xlink" width="204.6875" height="200"><defs><style type="text/css"></style></defs><path d="M875.944585 506.130732c-4.570537 0-8.491707-0.824195-11.813463-2.472586a24.476098 24.476098 0 0 1-8.291902-6.593561 30.270439 30.270439 0 0 1-5.095025-9.915317 46.754341 46.754341 0 0 1-1.998049-12.038244H818.950244c-0.149854 9.141073 1.148878 17.233171 3.871219 24.301269 2.747317 7.018146 6.593561 12.987317 11.588683 17.857561 4.995122 4.89522 11.089171 8.59161 18.232195 11.139122 7.143024 2.547512 15.035317 3.846244 23.72683 3.846244 7.517659 0 14.73561-1.148878 21.653853-3.396683 6.918244-2.247805 13.037268-5.569561 18.307122-9.890342 5.319805-4.370732 9.565659-9.740488 12.737561-16.184195 3.146927-6.468683 4.72039-13.811512 4.720391-22.053463 0-8.99122-2.422634-16.733659-7.267903-23.152391a33.592195 33.592195 0 0 0-20.130341-12.587707v-0.474537c7.242927-2.072976 12.637659-6.044098 16.234146-11.913365a37.713171 37.713171 0 0 0 5.444683-20.230244c0-7.043122-1.548488-13.287024-4.645463-18.656781a45.405659 45.405659 0 0 0-12.038244-13.736585 52.124098 52.124098 0 0 0-16.683708-8.416781 63.488 63.488 0 0 0-18.531902-2.822244c-7.96722 0-15.185171 1.298732-21.653854 3.946147-6.493659 2.622439-12.038244 6.343805-16.658732 11.139122-4.645463 4.795317-8.241951 10.514732-10.839414 17.183219-2.572488 6.668488-3.996098 14.061268-4.295805 22.153366h29.820878c-0.174829-8.092098 1.798244-14.810537 5.844293-20.130341 4.046049-5.294829 10.040195-7.992195 17.982439-7.992195a23.477073 23.477073 0 0 1 15.235122 5.419707c4.420683 3.596488 6.643512 8.741463 6.643512 15.509853a16.983415 16.983415 0 0 1-3.196878 10.789464 20.729756 20.729756 0 0 1-8.167025 6.193951 33.342439 33.342439 0 0 1-10.739512 2.572488 65.061463 65.061463 0 0 1-10.814439 0v22.503024c3.821268 0 7.842341 0.099902 12.038244 0.324683 4.195902 0.249756 8.067122 1.073951 11.588683 2.472586a19.830634 19.830634 0 0 1 8.741463 6.868292c2.27278 3.146927 3.421659 7.742439 3.421659 13.736586 0 7.642537-2.44761 13.661659-7.292878 18.082341a25.550049 25.550049 0 0 1-17.882537 6.618537zM508.153756 157.421268H539.473171V0h-24.950634c-0.874146 5.994146-2.722341 11.03922-5.51961 15.085268a33.417366 33.417366 0 0 1-10.24 9.740488 40.860098 40.860098 0 0 1-13.736586 5.194927c-5.194927 0.999024-10.489756 1.42361-15.759609 1.24878v24.076488h38.862048v102.075317zM186.642732 296.410537c-3.246829 3.047024-6.743415 5.794341-10.489756 8.192-3.646439 2.372683-7.242927 4.820293-10.814439 7.317853-6.36878 4.49561-12.662634 9.041171-18.906537 13.736586a94.407805 94.407805 0 0 0-15.559805 14.710634 64.28722 64.28722 0 0 0-10.489756 18.107317 66.934634 66.934634 0 0 0-3.846244 23.851707H230.025366v-27.473171H156.946732c3.746341-5.294829 8.192-10.065171 13.237073-14.136195 4.995122-4.046049 10.165073-7.842341 15.484878-11.363902 5.269854-3.496585 10.539707-7.093073 15.784585-10.689561 5.244878-3.596488 9.890341-7.592585 14.011317-12.038244 4.120976-4.395707 7.442732-9.465756 9.940293-15.160195 2.497561-5.719415 3.746341-12.537756 3.746342-20.48 0-7.642537-1.448585-14.535805-4.295805-20.679805a45.705366 45.705366 0 0 0-11.588683-15.509854 51.749463 51.749463 0 0 0-16.908488-9.665561 60.490927 60.490927 0 0 0-20.180293-3.396683c-9.315902 0-17.482927 1.623415-24.650927 4.845269-7.143024 3.246829-13.062244 7.742439-17.757658 13.486829-4.745366 5.769366-8.241951 12.537756-10.614634 20.230244a76.924878 76.924878 0 0 0-3.096976 25.075512H150.103415c0-4.170927 0.39961-8.41678 1.198829-12.68761 0.824195-4.270829 2.172878-8.167024 4.096-11.688585a24.226341 24.226341 0 0 1 7.617561-8.541659 19.980488 19.980488 0 0 1 11.613658-3.246829c6.743415 0 12.312976 2.097951 16.658732 6.393756 4.345756 4.245854 6.493659 10.24 6.493659 17.857561 0 4.820293-1.048976 9.091122-3.196878 12.837464-2.122927 3.746341-4.770341 7.118049-7.942244 10.115122z m796.547122 298.158829h-209.145756v426.783219h210.54439c35.515317 0 64.387122-29.421268 64.387122-65.585951V661.254244c0-36.764098-29.496195-66.684878-65.785756-66.684878zM717.724098 270.286049c0-36.289561-28.89678-65.810732-64.412098-65.810732H395.66361c-35.515317 0-64.412098 29.521171-64.412098 65.810732v751.066536H717.799024V598.090927h-0.049951V270.311024zM0 493.568v462.198634c0 36.164683 28.89678 65.585951 64.412098 65.585951h210.594341V427.382634H65.785756A66.060488 66.060488 0 0 0 0 493.568z" p-id="2004"></path></svg>