<?xml version="1.0" standalone="no"?><!DOCTYPE svg PUBLIC "-//W3C//DTD SVG 1.1//EN" "http://www.w3.org/Graphics/SVG/1.1/DTD/svg11.dtd"><svg t="1557139321496" class="icon" style="" viewBox="0 0 1024 1024" version="1.1" xmlns="http://www.w3.org/2000/svg" p-id="2756" xmlns:xlink="http://www.w3.org/1999/xlink" width="200" height="200"><defs><style type="text/css"></style></defs><path d="M832.15872 767.80032c0 11.87328 22.79936 95.22688-114.65216 98.14016l-446.42304 5.37088c-31.49824-1.35168-82.20672-70.32832-82.20672-82.20672 0 0 12.41088-189.23008-3.10272-190.78144-81.07008-8.10496-98.78016-91.81184-96.41984-150.11328 3.95264-97.42848 76.55936-81.88928 103.92576-128.20992 36.61312-61.97248-1.29536-44.29824 27.91936-128.21504 0-11.87328 41.28768-60.2624 83.86048-57.6l457.6768 2.6624c16.768 0 69.42208 54.9376 76.04224 83.01568 0 0 0.02048 73.0624 4.64896 110.12608 0 0 91.2896 35.41504 84.56704 140.89728-2.56 40.16128-17.3056 103.07072-78.35648 125.89056-15.92832 5.94944-17.47968 171.02336-17.47968 171.02336z" fill="#FFFFFF" p-id="2757"></path><path d="M837.47328 545.95072l4.97664 1.13664-4.97664-1.13664z m40.53504-218.19392a20.9408 20.9408 0 0 0-5.376-2.23232l-0.46592-0.11264a144.51712 144.51712 0 0 0-12.3904-4.03456l-0.47104-68.87424c0-81.41312-48.62464-136.11008-121.00096-136.11008H300.83584c-72.25344 0-122.71104 55.97696-122.71104 136.11008V320.4608c-64.51712 16.4096-108.12416 75.136-108.12416 148.81792 0 73.40544 41.44128 130.85184 104.86272 148.21888l-0.32256 172.99456c0 41.95328 26.87488 78.68928 65.9456 92.96384v1.41312c0 22.2464 18.36032 40.35584 40.92416 40.35584 20.21376 0 37.05344-14.52032 40.3456-33.54112h390.49728c3.29216 19.0208 20.13184 33.54112 40.3456 33.54112 22.56384 0 40.92416-18.10944 40.92416-40.35584v-1.42336c39.07072-14.26432 65.9456-51.00032 65.9456-92.9536v-173.06112c63.83104-17.50016 105.51296-74.87488 105.51296-148.11648 0-65.75104-33.76128-118.81472-86.97344-141.55776z m-42.65472 252.4416l-18.08896 2.66752 0.7424 207.62624c0 27.75552-20.56704 51.6352-48.9216 56.77568l-16.28672 2.95424H281.20576l-16.28672-2.95424c-28.35456-5.14048-48.9216-29.02016-48.9216-56.73472l0.384-207.71328-17.73568-2.62656c-52.9664-7.82336-87.18848-51.35872-87.18848-110.91968 0-59.77088 36.1472-104.41216 89.94304-111.09376l6.95296-0.86016c1.21344 0.01536 26.49088 0.5376 51.0976 11.9552 32.21504 14.94016 47.87712 40.63232 47.87712 78.52544a20.736 20.736 0 0 0 41.46176 0c0-68.4288-39.0912-100.92544-71.89504-116.14208-22.26176-10.33216-44.416-13.90592-57.31328-15.14496V252.49792c0-43.66848 21.27872-94.65344 81.24928-94.65344h437.4784c58.6496 0 79.5392 48.89088 79.5392 94.7968l0.45056 65.90976c-94.35136 0.85504-144.41984 74.81344-158.78144 120.56064l-0.96256 3.0464 0.4864 216.3712H331.83744a20.736 20.736 0 0 0 0 41.46176h368.77312l-0.56832-251.264c6.51264-17.96608 46.0544-110.7712 158.90944-83.8656 39.41376 15.8464 64.56832 55.24992 64.56832 104.45312 0 58.54208-35.4304 103.09632-88.1664 110.88384z" fill="" p-id="2758"></path></svg>