<?xml version="1.0" standalone="no"?><!DOCTYPE svg PUBLIC "-//W3C//DTD SVG 1.1//EN" "http://www.w3.org/Graphics/SVG/1.1/DTD/svg11.dtd"><svg t="1551960281152" class="icon" style="" viewBox="0 0 1024 1024" version="1.1" xmlns="http://www.w3.org/2000/svg" p-id="35601" xmlns:xlink="http://www.w3.org/1999/xlink" width="200" height="200"><defs><style type="text/css"></style></defs><path d="M1024 256a95.584 95.584 0 0 0-74.432-93.568L533.152 66.336a96.512 96.512 0 0 0-42.752 0.096l-415.968 96C30.592 172.544 0 211.008 0 256s30.624 83.456 74.4 93.568L160 369.312V640c0 84.928 97.216 160 352 160s352-75.072 352-160v-270.688l85.568-19.744A95.584 95.584 0 0 0 1024 256z m-224 384c0 35.36-96 96-288 96s-288-60.64-288-96v-255.904l266.816 61.568a96.8 96.8 0 0 0 42.752-0.096L800 384.096V640z m-280.8-256.8a34.464 34.464 0 0 1-14.4 0l-416-96a32 32 0 0 1 0-62.4l416-96a34.016 34.016 0 0 1 14.4 0l416 96a32.032 32.032 0 0 1 0 62.4l-416 96z" fill="#333333" p-id="35602"></path><path d="M928 416v288a32 32 0 1 0 64 0v-288a32 32 0 1 0-64 0zM960 768c-35.36 0-64 92.672-64 128a64 64 0 0 0 128 0c0-35.328-28.672-128-64-128z" fill="#333333" p-id="35603"></path></svg>