<?xml version="1.0" standalone="no"?><!DOCTYPE svg PUBLIC "-//W3C//DTD SVG 1.1//EN" "http://www.w3.org/Graphics/SVG/1.1/DTD/svg11.dtd"><svg t="1551960069624" class="icon" style="" viewBox="0 0 1024 1024" version="1.1" xmlns="http://www.w3.org/2000/svg" p-id="30124" xmlns:xlink="http://www.w3.org/1999/xlink" width="200" height="200"><defs><style type="text/css"></style></defs><path d="M157.542594 532.580734c-1.86958 0-3.702322 0.255827-5.535063 0.661056C39.707862 560.076972 30.945291 656.609539 30.832727 719.633944v1.980098c0 5.462408 0.074701 10.632151 0.149403 15.513322l0.071632 112.734574c0 64.710814 49.640584 106.508779 126.487809 106.508779h79.81686c13.014408 0 23.611767-10.562567 23.611767-23.610744 0-13.054317-10.597359-23.64963-23.611767-23.64963H157.541571c-23.833825 0-79.192643-5.755074-79.192644-59.247382l-0.146332-113.327068c-0.914836-71.272253 4.76656-136.827295 82.161254-156.661016h73.400731c13.051247 0 23.608697-10.595312 23.608697-23.612791 0-13.048177-10.55745-23.680329-23.608697-23.680328h-76.221986v-0.001024z" fill="" p-id="30125"></path><path d="M215.214085 349.298408c0-61.998029 50.484811-112.446002 112.483864-112.446002 62.066591 0 112.520703 50.487881 112.520703 112.446002 0 62.070684-50.454112 112.51968-112.520703 112.519679-61.999053 0-112.483864-50.448996-112.483864-112.519679M429.84028 67.137073c-62.253856 0-112.924909 50.632167-112.924909 112.889093v10.154268c-83.041298 5.535063-148.963707 74.680886-148.963706 159.117974 0 88.141456 71.676459 159.780053 159.742191 159.780053 88.141456 0 159.813822-71.675436 159.813822-159.780053 0-75.490322-52.753481-138.770554-123.295094-155.340951v-13.931291c0-36.189224 29.434379-65.62872 65.62565-65.628719H872.402815c36.187177 0 65.62872 29.474288 65.62872 65.628719v534.214955c0 36.158525-29.446659 65.62872-65.62872 65.628719H624.452653l0.069585-42.822294c0.549515-42.965557 1.243317-111.898533-41.467437-159.260214l120.438023-254.484995c5.53711-11.839653 0.517793-25.919323-11.294231-31.490202-11.761881-5.538133-25.921369-0.512676-31.490201 11.253299L544.709471 548.307927c-11.917424-6.230911-25.590841-11.362792-41.285289-15.109116a23.655769 23.655769 0 0 0-5.498224-0.655939h-76.295663c-13.017478 0-23.609721 10.590196-23.609721 23.611767 0 13.08604 10.592242 23.681352 23.609721 23.681352h73.395613c77.509305 19.835767 83.189677 85.388762 82.235956 156.630317l-0.11154 66.759473c0 0.106424-0.031722 0.182149-0.031722 0.255826 0 0.11154 0.031722 0.149403 0.031722 0.255827l-0.031722 46.124504c0 53.486168-55.43352 59.247382-79.227436 59.247382h-79.818907c-13.011338 0-23.605627 10.595312-23.605627 23.64349 0 13.054317 10.597359 23.611767 23.605627 23.611767h79.818907c76.81141 0 126.486786-41.792848 126.486786-106.503663v-22.732747h248.057609c62.225203 0 112.89421-50.67003 112.894209-112.88807V180.026166c0-62.256926-50.67003-112.889093-112.894209-112.889093H429.84028z" fill="" p-id="30126"></path></svg>