<?xml version="1.0" standalone="no"?><!DOCTYPE svg PUBLIC "-//W3C//DTD SVG 1.1//EN" "http://www.w3.org/Graphics/SVG/1.1/DTD/svg11.dtd"><svg t="1551953992464" class="icon" style="" viewBox="0 0 1024 1024" version="1.1" xmlns="http://www.w3.org/2000/svg" p-id="5987" xmlns:xlink="http://www.w3.org/1999/xlink" width="200" height="200"><defs><style type="text/css"></style></defs><path d="M903.44 474.52c-34.844-17.42-100.174-17.622-102.938-17.622a15 15 0 0 0 0 30c16.858 0.002 65.804 2.598 89.522 14.456a15.004 15.004 0 0 0 13.416-26.834z" p-id="5988"></path><path d="M978.224 688.082l-61.95-17.7a6.29 6.29 0 0 1-4.542-6.022v-20.678a112.736 112.736 0 0 0 14.342-11.762c21.78-21.136 33.774-49.486 33.774-79.83v-28.534l5.99-11.978a95.692 95.692 0 0 0 10.048-42.572v-77.3a15 15 0 0 0-15-15H816.54c-52.488 0-95.192 42.704-95.192 95.192v0.894a79.56 79.56 0 0 0 8.356 35.398l7.682 15.364v24.5c0 38.828 19.134 73.666 48.116 94.63l0.004 21.672c0 3.342 0 4.726-12.386 8.266l-30.228 8.636-87.442-31.796a14.982 14.982 0 0 0-4.088-11.484l-27.942-29.356v-49.28a180.854 180.854 0 0 0 8.688-7.578c35.25-33.04 55.466-79.688 55.466-127.982v-39.356c10.644-23.162 16.038-47.672 16.038-72.914v-160.38a15 15 0 0 0-15-15H464.074c-79.02 0-143.306 64.288-143.306 143.306v32.078c0 25.242 5.394 49.752 16.038 72.914v33.862c0 56.072 24.932 106.588 64.154 139.892v50.44l-27.942 29.356a14.982 14.982 0 0 0-4.088 11.484l-92.29 33.558a78.66 78.66 0 0 0-18.544 9.716l-14.492-7.246c43.14-18.778 56.806-45.188 57.462-46.5a14.996 14.996 0 0 0 0-13.416c-10.814-21.628-12.124-61.27-13.176-93.122-0.35-10.604-0.682-20.622-1.316-29.542-5.114-71.948-59.81-126.206-127.23-126.206s-122.118 54.256-127.23 126.206c-0.634 8.922-0.966 18.94-1.316 29.546-1.052 31.85-2.364 71.488-13.176 93.116a14.996 14.996 0 0 0 0 13.416c0.656 1.312 14.294 27.668 57.52 46.468l-40.254 20.126C13.368 716.352 0 737.982 0 762.04v110.818a15 15 0 0 0 30 0V762.04c0-12.624 7.014-23.974 18.304-29.62l50.126-25.062 17.436 16.57a62.932 62.932 0 0 0 43.478 17.376 62.95 62.95 0 0 0 43.478-17.376l17.434-16.568 16.344 8.172c-7.696 12.314-12.064 26.754-12.064 41.88v115.45a15 15 0 0 0 30 0v-115.45c0-20.592 13.002-39.156 32.356-46.194l97.304-35.382 40.506 60.762a30.924 30.924 0 0 0 22.766 13.67 30.916 30.916 0 0 0 25.008-8.94l24.712-24.712v156.248a15 15 0 0 0 30 0v-156.248l24.712 24.712a30.904 30.904 0 0 0 21.914 9.094c1.026 0 2.058-0.05 3.092-0.152a30.924 30.924 0 0 0 22.768-13.67l40.508-60.76 97.302 35.382c19.352 7.038 32.356 25.602 32.356 46.194v115.45a15 15 0 0 0 30 0v-115.45c0-20.856-8.286-40.416-22.186-54.882l3.706-1.058c3.738-1.068 8.838-2.53 13.958-5.04l38.298 38.298v138.132a15 15 0 0 0 30 0v-138.132l38.032-38.032c2.022 1.028 4.146 1.896 6.382 2.534l61.952 17.7c14.14 4.04 24.018 17.134 24.018 31.842v124.088a15 15 0 0 0 30 0v-124.088c0-28.036-18.824-52.994-45.776-60.696zM96.23 661.588c-28.058-10.096-42.132-23.556-48.14-30.906 4.096-10.708 6.752-22.972 8.55-35.918 8.272 19.834 22.126 36.766 39.59 48.846v17.978z m85.93 40.596c-12.794 12.156-32.836 12.154-45.626-0.002l-13.95-13.256a31.036 31.036 0 0 0 3.648-14.648v-15.988a110.854 110.854 0 0 0 33.116 5.034c11.514 0 22.632-1.772 33.114-5.024l-0.002 15.976c0 5.24 1.292 10.242 3.648 14.654l-13.948 13.254z m-22.808-68.86c-44.792 0-81.23-36.44-81.23-81.23a15 15 0 0 0-15-15c-0.84 0-1.66 0.086-2.462 0.22l0.13-3.86c0.334-10.314 0.656-20.056 1.25-28.412 1.916-26.952 12.686-51.788 30.326-69.936 17.798-18.312 41.586-28.396 66.982-28.396s49.182 10.084 66.982 28.396c17.64 18.148 28.41 42.984 30.326 69.936 0.592 8.354 0.916 18.094 1.256 28.406l0.09 2.676c-16.32-25.144-41.524-43.674-74.09-54.138-30.086-9.666-55.962-9.068-57.054-9.04a15 15 0 0 0-10.382 4.582l-27.064 28.068a15 15 0 1 0 21.596 20.824l22.52-23.354c19.394 0.948 81.788 8.204 106.054 61.638-6.106 39.376-39.95 68.62-80.23 68.62z m63.106 28.314l0.002-17.89a110.954 110.954 0 0 0 39.602-48.898c1.798 12.916 4.452 25.152 8.54 35.836-5.974 7.28-20.114 20.86-48.144 30.952z m144.348-243.348v-37.216a15.002 15.002 0 0 0-1.492-6.522c-9.652-19.988-14.546-41.196-14.546-63.036V279.44c0-62.478 50.83-113.306 113.306-113.306h209.538v145.384c0 21.84-4.894 43.048-14.546 63.036a15.002 15.002 0 0 0-1.492 6.522v42.71c0 40.622-16.33 78.3-45.982 106.094a149.272 149.272 0 0 1-11.516 9.75c-0.088 0.06-0.172 0.126-0.258 0.188-27.778 21.09-61.802 31.34-97.334 29.038-76.082-4.926-135.678-71.062-135.678-150.566z m84.458 301.822c-0.104 0.104-0.346 0.35-0.836 0.298a0.954 0.954 0 0 1-0.762-0.458l-46.65-69.976 15.012-15.774 70.77 48.374-37.534 37.536z m60.926-57.886l-81.23-55.524v-28c21.018 11.362 44.552 18.468 69.582 20.088 3.954 0.256 7.884 0.382 11.802 0.382 28.682 0 56.286-6.856 81.076-19.87v27.4l-81.23 55.524z m62.524 57.73a0.954 0.954 0 0 1-0.762 0.458c-0.49 0.062-0.73-0.196-0.836-0.298l-37.534-37.534 70.77-48.376 15.014 15.774-46.652 69.976z m273.902-12.656l-34.04-34.038c0.594-2.698 0.93-5.652 0.928-8.91l-0.002-6.33a105.178 105.178 0 0 0 33.158 5.3 111.42 111.42 0 0 0 33.072-5.002v6.04c0 2.992 0.376 5.924 1.084 8.742l-34.2 34.198z m56.566-96.908c-15.898 15.428-36.9 23.576-59.074 22.892-43.408-1.302-78.722-39.536-78.722-85.226v-28.042a14.986 14.986 0 0 0-1.584-6.708l-9.266-18.532a49.412 49.412 0 0 1-5.188-21.982v-0.894c0-35.948 29.246-65.192 65.192-65.192h129.346v62.3a65.54 65.54 0 0 1-6.882 29.156l-7.572 15.144a14.992 14.992 0 0 0-1.584 6.708v32.076c0 22.16-8.76 42.864-24.666 58.3z" p-id="5989"></path><path d="M944.846 761.628a15 15 0 0 0-15 15v96.23a15 15 0 0 0 30 0v-96.23a15 15 0 0 0-15-15zM79.154 781.456a15 15 0 0 0-15 15v76.402a15 15 0 0 0 30 0v-76.402a15 15 0 0 0-15-15zM635.064 316.95c-56.732-56.732-175.43-45.886-223.834-38.59-15.246 2.298-26.31 15.2-26.31 30.678v34.556a15 15 0 0 0 30 0v-34.558c0-0.51 0.336-0.946 0.784-1.014 19.334-2.914 57.7-7.41 97.45-4.76 46.776 3.114 80.656 14.856 100.698 34.9a15 15 0 0 0 21.212 0 15 15 0 0 0 0-21.212zM335.768 793.706a15 15 0 0 0-15 15v64.154a15 15 0 0 0 30 0v-64.154a15 15 0 0 0-15-15zM688.612 793.706a15 15 0 0 0-15 15v64.154a15 15 0 0 0 30 0v-64.154a15 15 0 0 0-15-15z" p-id="5990"></path></svg>